<?xml version="1.0" encoding="utf-8"?>
<!-- Generator: Adobe Illustrator 16.0.0, SVG Export Plug-In . SVG Version: 6.00 Build 0)  -->
<!DOCTYPE svg PUBLIC "-//W3C//DTD SVG 1.1//EN" "http://www.w3.org/Graphics/SVG/1.1/DTD/svg11.dtd">
<svg version="1.1" xmlns="http://www.w3.org/2000/svg" xmlns:xlink="http://www.w3.org/1999/xlink" x="0px" y="0px" width="250px"
	 height="250px" viewBox="0 0 250 250" enable-background="new 0 0 250 250" xml:space="preserve">
<g id="Camada_2">
	<g>
		<path fill="#15470F" d="M100.278,162.971v-28.702l0,0v-0.587l-0.211-0.584l-0.385-0.426l-0.562-0.428l-0.388-0.292l-0.771-0.293
			l-0.752-0.146l-0.753-0.146H79.842l0,0l-0.754,0.146l-0.771,0.146l-0.575,0.293l-0.579,0.292l-0.559,0.428l-0.194,0.426
			l-0.386,0.584v0.587v28.702H100.278z"/>
		<path fill="#15470F" d="M179.439,162.971V79.378l0,0v-0.752l-0.211-0.771l-0.387-0.579l-0.557-0.559l-0.389-0.387l-0.77-0.384
			l-0.754-0.194l-0.754-0.191h-16.617l0,0l-0.752,0.191l-0.771,0.194l-0.576,0.384l-0.578,0.387l-0.561,0.559l-0.193,0.579
			l-0.385,0.771v0.752v83.591h24.254V162.971L179.439,162.971z"/>
		<path fill="#15470F" d="M139.859,162.971v-61.46l0,0v-0.752l-0.211-0.771l-0.389-0.579l-0.561-0.558l-0.387-0.387l-0.771-0.384
			l-0.752-0.194l-0.754-0.191h-16.617l0,0l-0.752,0.191l-0.771,0.194l-0.578,0.384l-0.574,0.387l-0.563,0.558l-0.189,0.579
			l-0.389,0.771v0.752v61.46H139.859z"/>
		<path fill="none" stroke="#15470F" stroke-width="5" stroke-miterlimit="10" d="M56.117,75v96.184l0,0v0.752l0.174,0.771
			l0.387,0.576l0.384,0.578l0.56,0.561l0.771,0.193L58.955,175h0.979h133.951"/>
		<path fill="none" stroke="#15470F" stroke-width="5" stroke-miterlimit="10" d="M56.117,75v96.184l0,0v0.752l0.174,0.771
			l0.387,0.576l0.384,0.578l0.56,0.561l0.771,0.193L58.955,175h0.979h133.951"/>
	</g>
</g>
<g id="Camada_1">
	<g>
		<path fill="#15470F" d="M124.706,245c0,0-0.723-0.018-2.121-0.048c-1.4-0.062-3.473-0.001-6.183-0.254
			c-5.417-0.341-13.371-1.222-23.189-3.849c-9.764-2.676-21.529-6.953-33.546-14.692c-6.006-3.839-12.086-8.466-17.936-13.994
			c-5.829-5.537-11.523-11.908-16.48-19.29c-2.446-3.706-4.875-7.555-6.972-11.689c-0.527-1.033-1.056-2.069-1.588-3.111
			c-0.483-1.065-0.968-2.137-1.455-3.211c-1.022-2.133-1.832-4.379-2.731-6.61c-0.468-1.108-0.81-2.271-1.214-3.414
			c-0.388-1.147-0.796-2.297-1.15-3.469c-0.328-1.181-0.658-2.363-0.99-3.554l-0.497-1.783l-0.418-1.814
			c-0.274-1.214-0.548-2.431-0.825-3.652c-0.269-1.224-0.448-2.471-0.677-3.711c-0.484-2.479-0.769-5.008-1.06-7.552
			c-0.177-1.267-0.235-2.551-0.326-3.837c-0.082-1.283-0.166-2.574-0.249-3.869C5.078,130.3,5.055,129,5.033,127.697L5,125.736
			c0.005-0.752,0.039-1.317,0.056-1.986c0.049-1.289,0.098-2.583,0.147-3.878c0.066-1.305,0.221-2.649,0.329-3.977
			c0.182-2.678,0.618-5.302,0.979-7.958c0.897-5.28,1.997-10.593,3.623-15.804c0.717-2.633,1.707-5.192,2.598-7.791
			c0.491-1.284,1.029-2.552,1.543-3.831l0.781-1.917l0.874-1.881c9.188-20.137,24.217-38.253,43.298-51.094
			C78.253,12.751,101.312,5.256,124.712,5c2.963,0.063,5.769-0.021,8.739,0.232c1.462,0.113,2.947,0.137,4.395,0.324l4.359,0.498
			c5.786,0.84,11.545,1.967,17.156,3.633c5.592,1.712,11.1,3.714,16.379,6.211c5.264,2.514,10.396,5.304,15.236,8.528
			c19.424,12.835,34.598,31.333,43.631,51.785l0.863,1.909l0.771,1.944c0.507,1.297,1.036,2.583,1.52,3.884
			c0.878,2.632,1.847,5.225,2.527,7.894c1.567,5.278,2.601,10.647,3.429,15.975c0.327,2.678,0.729,5.334,0.873,8
			c0.09,1.331,0.227,2.656,0.273,3.981c0.033,1.325,0.064,2.648,0.099,3.965l0.021,0.987l0.012,0.494l0.005,0.246
			c0.004,0.068-0.005,0.29-0.005,0.31l-0.057,1.925c-0.039,1.282-0.074,2.56-0.113,3.834c-0.1,1.31-0.198,2.613-0.297,3.916
			c-0.106,1.301-0.186,2.606-0.377,3.871c-0.328,2.547-0.623,5.081-1.123,7.564c-0.237,1.242-0.424,2.492-0.7,3.717
			c-0.283,1.223-0.567,2.441-0.849,3.657l-0.431,1.815l-0.509,1.789c-0.339,1.188-0.678,2.371-1.014,3.551
			c-0.361,1.172-0.777,2.32-1.168,3.472c-0.41,1.146-0.758,2.307-1.231,3.417c-3.455,9.002-7.835,17.266-12.854,24.609
			c-4.989,7.369-10.686,13.744-16.527,19.274c-5.859,5.524-11.952,10.14-17.959,13.981c-12.025,7.736-23.796,12.018-33.564,14.685
			c-9.82,2.623-17.783,3.494-23.191,3.827c-2.704,0.249-4.791,0.188-6.19,0.246c-1.403,0.027-2.125,0.045-2.125,0.045h-0.008V245z
			 M124.711,244.503c0,0,0.72-0.021,2.114-0.063c1.396-0.068,3.471-0.025,6.161-0.301c5.375-0.375,13.312-1.279,22.984-4.158
			c4.862-1.33,10.086-3.352,15.596-5.885c5.516-2.529,11.244-5.783,16.996-9.775c11.502-7.961,23.024-19.196,32.274-33.706
			c4.586-7.265,8.63-15.296,11.794-23.993c3.168-8.694,5.361-18.077,6.438-27.854c0.177-1.224,0.232-2.438,0.322-3.66
			c0.086-1.223,0.17-2.45,0.254-3.682c0.026-1.273,0.054-2.551,0.08-3.833l0.039-1.926l-0.049-1.826
			c-0.033-1.262-0.064-2.526-0.098-3.794c-0.045-1.268-0.178-2.536-0.26-3.808c-0.133-2.552-0.519-5.092-0.824-7.654
			c-0.789-5.096-1.768-10.232-3.26-15.281c-0.655-2.551-1.569-5.034-2.371-7.566c-0.449-1.248-0.944-2.484-1.416-3.731l-0.717-1.87
			l-0.809-1.835c-4.219-9.847-9.936-19.23-16.891-27.761c-3.469-4.279-7.334-8.257-11.391-12.054
			c-4.082-3.781-8.518-7.189-13.1-10.415c-4.607-3.199-9.51-5.983-14.553-8.51c-5.055-2.512-10.35-4.548-15.734-6.312
			c-5.395-1.764-10.948-3.023-16.559-4.005l-4.228-0.611c-1.411-0.227-2.819-0.285-4.231-0.436c-2.78-0.329-5.764-0.335-8.567-0.479
			c-5.711,0.002-11.432,0.286-17.099,1.058c-5.653,0.831-11.277,1.94-16.757,3.577c-5.457,1.686-10.833,3.65-15.983,6.102
			c-5.129,2.481-10.117,5.246-14.819,8.422c-9.402,6.349-17.821,14.03-24.846,22.692c-7.038,8.65-12.697,18.237-16.868,28.227
			l-0.797,1.863l-0.706,1.897c-0.464,1.266-0.95,2.518-1.392,3.785c-0.79,2.564-1.681,5.082-2.302,7.668
			c-1.435,5.116-2.347,10.312-3.066,15.453c-0.272,2.584-0.623,5.156-0.717,7.695c-0.066,1.277-0.179,2.524-0.207,3.813
			c-0.015,1.298-0.031,2.592-0.047,3.882c-0.007,0.621-0.031,1.344-0.022,1.875l0.063,1.894c0.041,1.259,0.082,2.515,0.125,3.767
			c0.101,1.245,0.201,2.489,0.301,3.729c0.107,1.238,0.183,2.476,0.373,3.695c1.174,9.801,3.417,19.189,6.635,27.887
			c3.211,8.699,7.294,16.723,11.904,23.98c9.297,14.497,20.833,25.726,32.346,33.68c5.757,3.992,11.488,7.246,17.006,9.772
			c5.513,2.534,10.74,4.554,15.604,5.878c9.677,2.877,17.622,3.771,22.989,4.139c2.684,0.271,4.772,0.226,6.167,0.293
			c1.399,0.041,2.12,0.063,2.12,0.063h-0.006v-0.001H124.711z"/>
	</g>
</g>
</svg>
