<?xml version="1.0" encoding="utf-8"?>
<!-- Generator: Adobe Illustrator 16.0.0, SVG Export Plug-In . SVG Version: 6.00 Build 0)  -->
<!DOCTYPE svg PUBLIC "-//W3C//DTD SVG 1.1//EN" "http://www.w3.org/Graphics/SVG/1.1/DTD/svg11.dtd">
<svg version="1.1" id="Camada_1" xmlns="http://www.w3.org/2000/svg" xmlns:xlink="http://www.w3.org/1999/xlink" x="0px" y="0px"
	 width="250px" height="250px" viewBox="0 0 250 250" enable-background="new 0 0 250 250" xml:space="preserve">
<g>
	<path fill="none" stroke="#000000" stroke-width="6" stroke-miterlimit="10" d="M56.116,75v96.184l0,0v0.752l0.174,0.771
		l0.387,0.576l0.384,0.578l0.56,0.561l0.771,0.193L58.954,175h0.98h133.95"/>
	<path fill="none" stroke="#000000" stroke-width="6" stroke-miterlimit="10" d="M56.116,75v96.184l0,0v0.752l0.174,0.771
		l0.387,0.576l0.384,0.578l0.56,0.561l0.771,0.193L58.954,175h0.98h133.95"/>
	<path fill="none" stroke="#000000" stroke-width="6" stroke-miterlimit="10" d="M92.186,162.971v-37.785l0,0v-0.772l-0.21-0.77
		l-0.384-0.561l-0.561-0.562l-0.386-0.385l-0.771-0.385l-0.753-0.193l-0.753-0.191H71.753l0,0L71,121.559l-0.771,0.193l-0.579,0.385
		l-0.579,0.385l-0.558,0.562l-0.195,0.561l-0.384,0.77v0.772v37.784H92.186L92.186,162.971z"/>
	<path fill="none" stroke="#000000" stroke-width="6" stroke-miterlimit="10" d="M92.186,162.971v-37.785l0,0v-0.772l-0.21-0.77
		l-0.384-0.561l-0.561-0.562l-0.386-0.385l-0.771-0.385l-0.753-0.193l-0.753-0.191H71.753l0,0L71,121.559l-0.771,0.193l-0.579,0.385
		l-0.579,0.385l-0.558,0.562l-0.195,0.561l-0.384,0.77v0.772v37.784H92.186L92.186,162.971z"/>
	<path fill="none" stroke="#000000" stroke-width="6" stroke-miterlimit="10" d="M188.945,162.971v-37.785l0,0v-0.772l-0.211-0.77
		l-0.385-0.561l-0.56-0.562l-0.386-0.385l-0.771-0.385l-0.752-0.193l-0.753-0.191h-16.617l0,0l-0.754,0.191l-0.771,0.193
		l-0.577,0.385l-0.579,0.385l-0.557,0.562l-0.196,0.561l-0.384,0.77v0.772v37.785H188.945z"/>
	<path fill="none" stroke="#000000" stroke-width="6" stroke-miterlimit="10" d="M188.945,162.971v-37.785l0,0v-0.772l-0.211-0.77
		l-0.385-0.561l-0.56-0.562l-0.386-0.385l-0.771-0.385l-0.752-0.193l-0.753-0.191h-16.617l0,0l-0.754,0.191l-0.771,0.193
		l-0.577,0.385l-0.579,0.385l-0.557,0.562l-0.196,0.561l-0.384,0.77v0.772v37.785H188.945z"/>
	<path fill="none" stroke="#000000" stroke-width="6" stroke-miterlimit="10" d="M124.439,162.971V79.378l0,0v-0.752l-0.21-0.771
		l-0.387-0.579l-0.558-0.558l-0.388-0.387l-0.77-0.384l-0.754-0.194l-0.753-0.192h-16.617l0,0l-0.753,0.192l-0.77,0.194
		l-0.576,0.384l-0.579,0.387l-0.561,0.558l-0.192,0.579l-0.386,0.771v0.752v83.591h24.254V162.971z"/>
	<path fill="none" stroke="#000000" stroke-width="6" stroke-miterlimit="10" d="M124.439,162.971V79.378l0,0v-0.752l-0.21-0.771
		l-0.387-0.579l-0.558-0.558l-0.388-0.387l-0.77-0.384l-0.754-0.194l-0.753-0.192h-16.617l0,0l-0.753,0.192l-0.77,0.194
		l-0.576,0.384l-0.579,0.387l-0.561,0.558l-0.192,0.579l-0.386,0.771v0.752v83.591h24.254V162.971z"/>
	<path fill="none" stroke="#000000" stroke-width="6" stroke-miterlimit="10" d="M156.693,162.971v-61.46l0,0v-0.752l-0.211-0.771
		l-0.387-0.579l-0.561-0.558l-0.385-0.386l-0.771-0.384l-0.753-0.194l-0.754-0.192h-16.617l0,0l-0.752,0.192l-0.771,0.194
		l-0.578,0.384l-0.575,0.386l-0.562,0.558l-0.191,0.579l-0.387,0.771v0.752v61.46H156.693z"/>
</g>
<g>
	<path fill="#202020" d="M125.74,244.047c0,0-0.737-0.017-2.163-0.048c-1.427-0.061-3.541-0.001-6.305-0.256
		c-5.524-0.343-13.636-1.23-23.648-3.874c-9.957-2.693-21.955-7-34.209-14.792c-6.125-3.864-12.325-8.522-18.29-14.089
		c-5.944-5.574-11.751-11.988-16.806-19.42c-2.495-3.731-4.972-7.605-7.11-11.769c-0.537-1.039-1.077-2.083-1.619-3.132
		c-0.493-1.073-0.987-2.151-1.484-3.234c-1.042-2.146-1.868-4.408-2.785-6.653c-0.477-1.117-0.826-2.286-1.238-3.438
		c-0.395-1.157-0.812-2.313-1.173-3.493c-0.335-1.187-0.671-2.379-1.009-3.575l-0.507-1.798l-0.426-1.826
		c-0.28-1.222-0.56-2.447-0.842-3.677c-0.274-1.232-0.457-2.487-0.69-3.736c-0.494-2.496-0.784-5.041-1.081-7.602
		c-0.18-1.276-0.24-2.569-0.332-3.863c-0.084-1.294-0.169-2.592-0.254-3.895c-0.022-1.305-0.045-2.613-0.068-3.926l-0.033-1.972
		c0.005-0.758,0.039-1.326,0.057-2c0.05-1.298,0.1-2.6,0.15-3.905c0.067-1.313,0.225-2.667,0.335-4.003
		c0.185-2.696,0.63-5.338,0.998-8.012c0.915-5.316,2.036-10.664,3.694-15.91c0.731-2.651,1.74-5.227,2.649-7.844
		c0.501-1.292,1.049-2.569,1.574-3.857l0.797-1.93l0.891-1.894c9.37-20.273,24.696-38.511,44.154-51.439
		c19.402-12.954,42.917-20.499,66.78-20.757c3.023,0.063,5.883-0.021,8.912,0.233c1.492,0.114,3.006,0.138,4.481,0.327l4.446,0.501
		c5.9,0.846,11.773,1.981,17.496,3.658c5.702,1.723,11.319,3.739,16.702,6.253c5.369,2.53,10.603,5.339,15.538,8.585
		c19.809,12.922,35.282,31.545,44.494,52.134l0.88,1.922l0.786,1.957c0.517,1.306,1.057,2.601,1.55,3.91
		c0.896,2.65,1.882,5.26,2.578,7.947c1.598,5.314,2.651,10.719,3.496,16.083c0.333,2.696,0.742,5.37,0.89,8.054
		c0.092,1.34,0.23,2.674,0.28,4.008c0.033,1.334,0.066,2.666,0.099,3.992l0.021,0.994l0.011,0.497l0.005,0.248
		c0.004,0.069-0.005,0.291-0.005,0.312l-0.058,1.938c-0.038,1.29-0.076,2.576-0.114,3.858c-0.102,1.318-0.203,2.632-0.304,3.942
		c-0.108,1.31-0.188,2.625-0.383,3.898c-0.336,2.564-0.636,5.116-1.146,7.616c-0.242,1.252-0.432,2.509-0.714,3.742
		c-0.29,1.231-0.579,2.459-0.866,3.682l-0.438,1.828l-0.519,1.8c-0.346,1.197-0.69,2.39-1.033,3.577
		c-0.369,1.179-0.793,2.336-1.192,3.494c-0.418,1.152-0.772,2.322-1.255,3.439c-3.524,9.063-7.991,17.383-13.109,24.776
		c-5.088,7.42-10.897,13.838-16.855,19.405c-5.976,5.563-12.188,10.209-18.314,14.076c-12.263,7.79-24.266,12.099-34.228,14.785
		c-10.015,2.64-18.136,3.517-23.651,3.852c-2.758,0.251-4.885,0.189-6.313,0.248c-1.43,0.029-2.167,0.045-2.167,0.045H125.74z
		 M125.746,243.547c0,0,0.734-0.021,2.157-0.064c1.422-0.07,3.539-0.027,6.282-0.303c5.482-0.379,13.575-1.29,23.44-4.188
		c4.958-1.337,10.285-3.373,15.904-5.923c5.624-2.547,11.466-5.823,17.333-9.842c11.729-8.015,23.479-19.327,32.911-33.934
		c4.677-7.313,8.801-15.399,12.028-24.155c3.23-8.753,5.466-18.198,6.565-28.041c0.18-1.231,0.237-2.454,0.329-3.685
		c0.086-1.231,0.172-2.467,0.259-3.706c0.026-1.282,0.054-2.568,0.08-3.859l0.041-1.938l-0.05-1.838
		c-0.033-1.27-0.065-2.543-0.099-3.82c-0.046-1.277-0.18-2.553-0.265-3.834c-0.135-2.569-0.527-5.126-0.84-7.706
		c-0.805-5.13-1.801-10.301-3.325-15.384c-0.668-2.568-1.6-5.068-2.418-7.617c-0.458-1.257-0.963-2.501-1.443-3.757l-0.731-1.882
		l-0.824-1.848c-4.302-9.913-10.131-19.361-17.225-27.948c-3.536-4.308-7.477-8.313-11.615-12.135
		c-4.162-3.807-8.686-7.238-13.358-10.485c-4.698-3.22-9.697-6.023-14.84-8.567c-5.155-2.529-10.553-4.579-16.046-6.354
		c-5.5-1.776-11.165-3.044-16.885-4.032L138.8,6.087c-1.438-0.228-2.876-0.287-4.315-0.439c-2.836-0.331-5.877-0.337-8.738-0.482
		c-5.824,0.002-11.657,0.288-17.437,1.065c-5.765,0.837-11.5,1.953-17.088,3.601c-5.565,1.697-11.047,3.675-16.299,6.143
		c-5.231,2.498-10.317,5.281-15.112,8.479C50.223,30.846,41.637,38.579,34.474,47.3c-7.177,8.708-12.948,18.36-17.201,28.417
		l-0.813,1.876l-0.72,1.91c-0.473,1.274-0.969,2.535-1.419,3.81c-0.806,2.582-1.714,5.116-2.348,7.72
		c-1.463,5.151-2.393,10.38-3.127,15.558c-0.277,2.601-0.635,5.19-0.731,7.747c-0.067,1.286-0.182,2.541-0.21,3.839
		c-0.016,1.306-0.032,2.609-0.048,3.908c-0.007,0.625-0.032,1.353-0.023,1.889l0.064,1.905c0.042,1.268,0.084,2.531,0.127,3.791
		c0.103,1.255,0.205,2.507,0.307,3.754c0.109,1.247,0.186,2.492,0.38,3.721c1.197,9.866,3.484,19.319,6.766,28.074
		c3.275,8.758,7.439,16.836,12.139,24.143c9.481,14.595,21.245,25.898,32.986,33.906c5.871,4.019,11.715,7.294,17.342,9.84
		c5.622,2.55,10.952,4.584,15.913,5.918c9.868,2.895,17.97,3.794,23.444,4.166c2.737,0.271,4.866,0.226,6.289,0.295
		c1.426,0.041,2.162,0.062,2.162,0.062H125.746z"/>
</g>
</svg>
