<?xml version="1.0" encoding="utf-8"?>
<!-- Generator: Adobe Illustrator 16.0.0, SVG Export Plug-In . SVG Version: 6.00 Build 0)  -->
<!DOCTYPE svg PUBLIC "-//W3C//DTD SVG 1.1//EN" "http://www.w3.org/Graphics/SVG/1.1/DTD/svg11.dtd">
<svg version="1.1" id="Camada_1" xmlns="http://www.w3.org/2000/svg" xmlns:xlink="http://www.w3.org/1999/xlink" x="0px" y="0px"
	 width="250px" height="250px" viewBox="0 0 250 250" enable-background="new 0 0 250 250" xml:space="preserve">
<g>
	<path d="M124.994,241c0,0-0.711,0.109-2.09,0.079c-1.379-0.059-3.423,0.062-6.096-0.184c-5.34-0.332-13.182-1.158-22.863-3.709
		c-9.626-2.603-21.23-6.74-33.085-14.269c-5.925-3.732-11.924-8.226-17.696-13.604c-5.751-5.387-11.373-11.581-16.265-18.769
		c-2.415-3.607-4.813-7.352-6.881-11.378c-0.52-1.005-1.042-2.014-1.567-3.028c-0.477-1.038-0.955-2.08-1.436-3.129
		c-1.008-2.074-1.807-4.262-2.695-6.434c-0.461-1.08-0.799-2.211-1.198-3.325c-0.382-1.12-0.786-2.238-1.134-3.379
		c-0.324-1.148-0.65-2.301-0.977-3.458l-0.49-1.739l-0.412-1.767c-0.271-1.182-0.542-2.367-0.814-3.558
		c-0.266-1.191-0.441-2.405-0.667-3.613c-0.478-2.414-0.759-4.876-1.044-7.353c-0.173-1.235-0.231-2.485-0.32-3.737
		c-0.081-1.251-0.163-2.507-0.245-3.767c-0.021-1.262-0.043-2.527-0.065-3.798l-0.032-1.907c0.005-0.737,0.038-1.283,0.056-1.935
		c0.048-1.255,0.097-2.513,0.146-3.775c0.066-1.269,0.219-2.58,0.326-3.872c0.181-2.609,0.612-5.164,0.969-7.75
		c0.888-5.142,1.974-10.313,3.58-15.385c0.708-2.564,1.686-5.055,2.566-7.584c0.485-1.249,1.016-2.484,1.523-3.729l0.772-1.866
		l0.862-1.831c9.073-19.6,23.897-37.227,42.709-49.728C79.192,15.197,101.924,7.891,125,7.631c2.926,0.06,5.687-0.023,8.619,0.222
		c1.442,0.109,2.906,0.132,4.334,0.314l4.3,0.483c5.707,0.815,11.388,1.911,16.924,3.529c5.515,1.665,10.948,3.613,16.156,6.043
		c5.194,2.445,10.257,5.161,15.032,8.299c19.162,12.495,34.134,30.507,43.048,50.422l0.852,1.859l0.762,1.894
		c0.5,1.264,1.022,2.516,1.499,3.782c0.867,2.563,1.821,5.089,2.495,7.688c1.545,5.141,2.564,10.369,3.383,15.558
		c0.322,2.608,0.718,5.195,0.86,7.792c0.089,1.296,0.223,2.586,0.271,3.877c0.032,1.291,0.064,2.579,0.096,3.862l0.02,0.962
		l0.01,0.48l0.005,0.24l-0.005,0.303l-0.056,1.874c-0.037,1.247-0.074,2.49-0.111,3.729c-0.099,1.275-0.196,2.547-0.294,3.814
		c-0.105,1.268-0.182,2.541-0.371,3.772c-0.325,2.481-0.616,4.949-1.11,7.367c-0.234,1.211-0.418,2.427-0.691,3.62
		c-0.28,1.191-0.56,2.379-0.838,3.562l-0.424,1.769l-0.503,1.741c-0.334,1.157-0.668,2.311-1,3.46
		c-0.357,1.141-0.768,2.26-1.154,3.38c-0.404,1.115-0.748,2.246-1.215,3.326c-3.411,8.766-7.735,16.813-12.689,23.961
		c-9.943,14.322-22.206,24.912-34.036,32.358c-11.863,7.525-23.472,11.681-33.103,14.275c-9.684,2.548-17.534,3.395-22.867,3.718
		c-2.666,0.243-4.722,0.058-6.103,0.114C125.713,241.11,125,241,125,241H124.994z M125,241c0,0,0.71-0.146,2.086-0.188
		c1.374-0.068,3.42-0.09,6.071-0.355c5.299-0.368,13.122-1.28,22.655-4.087c4.793-1.293,9.94-3.279,15.369-5.748
		c5.434-2.465,11.077-5.643,16.744-9.531c11.33-7.752,22.673-18.697,31.776-32.813c4.514-7.067,8.494-14.883,11.609-23.341
		c3.118-8.457,5.276-17.582,6.337-27.089c0.173-1.189,0.229-2.371,0.317-3.559c0.083-1.189,0.166-2.383,0.249-3.579
		c0.025-1.239,0.052-2.483,0.077-3.73l0.039-1.874l-0.048-1.773c-0.032-1.227-0.064-2.457-0.096-3.69
		c-0.045-1.233-0.174-2.465-0.256-3.704c-0.13-2.481-0.51-4.951-0.812-7.443c-0.776-4.956-1.739-9.95-3.21-14.86
		c-0.646-2.481-1.546-4.895-2.336-7.357c-0.442-1.214-0.93-2.416-1.394-3.629l-0.705-1.818l-0.796-1.785
		c-4.154-9.576-9.782-18.704-16.634-27c-3.415-4.162-7.22-8.032-11.218-11.725c-4.02-3.678-8.389-6.994-12.902-10.131
		c-4.537-3.112-9.366-5.822-14.333-8.282c-4.98-2.445-10.193-4.427-15.5-6.145c-5.313-1.718-10.786-2.947-16.312-3.904l-4.168-0.593
		c-1.391-0.221-2.777-0.279-4.169-0.427c-2.738-0.321-5.681-0.329-8.444-0.47c-5.627,0-11.264,0.273-16.85,1.022
		c-5.571,0.807-11.114,1.882-16.515,3.472c-5.378,1.639-10.677,3.549-15.753,5.933c-5.056,2.413-9.972,5.103-14.606,8.194
		c-9.266,6.177-17.563,13.651-24.482,22.083c-6.935,8.418-12.505,17.749-16.61,27.468l-0.785,1.813L18.704,82.2
		c-0.456,1.231-0.935,2.45-1.369,3.682c-0.777,2.495-1.653,4.944-2.264,7.46c-1.411,4.977-2.307,10.03-3.014,15.033
		c-0.267,2.513-0.611,5.016-0.703,7.484c-0.064,1.242-0.174,2.454-0.201,3.708c-0.015,1.263-0.03,2.522-0.044,3.778
		c-0.006,0.603-0.03,1.31-0.022,1.824l0.063,1.84c0.042,1.225,0.083,2.445,0.124,3.662c0.1,1.213,0.199,2.422,0.298,3.627
		c0.105,1.205,0.18,2.408,0.368,3.595c1.157,9.53,3.369,18.662,6.537,27.12c3.163,8.461,7.183,16.266,11.72,23.327
		c9.153,14.104,20.509,25.037,31.852,32.783c5.671,3.888,11.317,7.057,16.754,9.521c5.432,2.469,10.582,4.438,15.376,5.728
		c9.536,2.803,17.368,3.673,22.659,4.032c2.646,0.263,4.704,0.344,6.079,0.411c1.378,0.039,2.09,0.185,2.09,0.185H125z"/>
</g>
<g>
	<path fill-opacity="0" stroke="#000000" stroke-miterlimit="10" d="M182.444,88.317h-36v-2.937l0,0v-1.047l-0.175-1.032
		l-0.682-1.905l-0.873-1.73l-1.382-1.556l-1.381-1.207l-1.905-1.048l-1.904-0.508l-1.031-0.19L136.063,75h-22.143l0,0l-1.032,0.159
		l-1.048,0.19l-1.904,0.508l-1.905,1.048l-1.381,1.207l-1.38,1.556l-0.857,1.73l-0.698,1.905l-0.174,1.032v1.047v2.937H67.555l0,0
		h-0.698l-0.698,0.175l-0.508,0.349l-0.508,0.508l-0.54,0.349l-0.159,0.698l-0.349,0.699v0.683V116l0,0l0.159,1.381l0.349,1.206
		l0.698,1.206l0.857,1.048l1.047,0.857l1.047,0.698l1.366,0.349l1.396,0.175h47.921v-4.333l0,0l0.175-0.683l0.174-0.523l0.333-0.698
		l0.349-0.509l0.54-0.349l0.683-0.349l0.523-0.174l0.698-0.175h5.175l0,0l0.698,0.175l0.509,0.174l0.698,0.349l0.508,0.349
		l0.35,0.509l0.349,0.698l0.175,0.523l0.174,0.683v4.333h47.938l0,0l1.365-0.175l1.396-0.349l1.031-0.698l1.032-0.857l0.873-1.048
		l0.682-1.206l0.351-1.206l0.19-1.381V91.778l0,0v-0.683l-0.351-0.699l-0.19-0.698l-0.508-0.349l-0.508-0.508l-0.539-0.349
		l-0.683-0.175H182.444L182.444,88.317z M139.523,88.317H110.46v-2.937l0,0v-0.698l0.349-0.524l0.175-0.683l0.508-0.523l0.524-0.349
		l0.524-0.349l0.698-0.175l0.683-0.159h22.143l0,0l0.698,0.159l0.683,0.175l0.523,0.349l0.524,0.349l0.523,0.523l0.159,0.683
		l0.349,0.524v0.698V88.317z"/>
	<path fill="none" stroke="#000000" stroke-width="5" stroke-linecap="round" stroke-linejoin="round" stroke-miterlimit="10" d="
		M182.444,88.317h-36v-2.937l0,0v-1.047l-0.175-1.032l-0.682-1.905l-0.873-1.73l-1.382-1.556l-1.381-1.207l-1.905-1.048
		l-1.904-0.508l-1.031-0.19L136.063,75h-22.143l0,0l-1.032,0.159l-1.048,0.19l-1.904,0.508l-1.905,1.048l-1.381,1.207l-1.38,1.556
		l-0.857,1.73l-0.698,1.905l-0.174,1.032v1.047v2.937H67.555l0,0h-0.698l-0.698,0.175l-0.508,0.349l-0.508,0.508l-0.54,0.349
		l-0.159,0.698l-0.349,0.699v0.683V116l0,0l0.159,1.381l0.349,1.206l0.698,1.206l0.857,1.048l1.047,0.857l1.047,0.698l1.366,0.349
		l1.396,0.175h47.921v-4.333l0,0l0.175-0.683l0.174-0.523l0.333-0.698l0.349-0.509l0.54-0.349l0.683-0.349l0.523-0.174l0.698-0.175
		h5.175l0,0l0.698,0.175l0.509,0.174l0.698,0.349l0.508,0.349l0.35,0.509l0.349,0.698l0.175,0.523l0.174,0.683v4.333h47.938l0,0
		l1.365-0.175l1.396-0.349l1.031-0.698l1.032-0.857l0.873-1.048l0.682-1.206l0.351-1.206l0.19-1.381V91.778l0,0v-0.683l-0.351-0.699
		l-0.19-0.698l-0.508-0.349l-0.508-0.508l-0.539-0.349l-0.683-0.175H182.444L182.444,88.317z M139.523,88.317H110.46v-2.937l0,0
		v-0.698l0.349-0.524l0.175-0.683l0.508-0.523l0.524-0.349l0.524-0.349l0.698-0.175l0.683-0.159h22.143l0,0l0.698,0.159l0.683,0.175
		l0.523,0.349l0.524,0.349l0.523,0.523l0.159,0.683l0.349,0.524v0.698V88.317z"/>
	<path fill-opacity="0" stroke="#000000" stroke-miterlimit="10" d="M131.047,124.302v3.285l0,0l-0.174,0.699l-0.175,0.682
		l-0.349,0.698l-0.35,0.351l-0.508,0.508l-0.698,0.349l-0.509,0.19h-0.698h-5.175l0,0h-0.698l-0.523-0.19l-0.683-0.349l-0.54-0.508
		l-0.349-0.351l-0.333-0.698l-0.174-0.682l-0.175-0.699v-3.285"/>
	<path fill="none" stroke="#000000" stroke-width="5" stroke-linecap="round" stroke-linejoin="round" stroke-miterlimit="10" d="
		M131.047,124.302v3.285l0,0l-0.174,0.699l-0.175,0.682l-0.349,0.698l-0.35,0.351l-0.508,0.508l-0.698,0.349l-0.509,0.19h-0.698
		h-5.175l0,0h-0.698l-0.523-0.19l-0.683-0.349l-0.54-0.508l-0.349-0.351l-0.333-0.698l-0.174-0.682l-0.175-0.699v-3.285"/>
	<path fill-opacity="0" stroke="#000000" stroke-miterlimit="10" d="M64.095,121.54v50l0,0v0.683l0.349,0.523l0.159,0.683
		l0.54,0.524l0.508,0.349l0.508,0.349l0.698,0.159l0.698,0.19h114.889l0,0l0.683-0.19l0.683-0.159l0.539-0.349l0.508-0.349
		l0.508-0.524l0.19-0.683l0.351-0.523v-0.683v-50"/>
	<path fill="none" stroke="#000000" stroke-width="5" stroke-linecap="round" stroke-linejoin="round" stroke-miterlimit="10" d="
		M64.095,121.54v50l0,0v0.683l0.349,0.523l0.159,0.683l0.54,0.524l0.508,0.349l0.508,0.349l0.698,0.159l0.698,0.19h114.889l0,0
		l0.683-0.19l0.683-0.159l0.539-0.349l0.508-0.349l0.508-0.524l0.19-0.683l0.351-0.523v-0.683v-50"/>
</g>
</svg>
