<?xml version="1.0" encoding="utf-8"?>
<!-- Generator: Adobe Illustrator 16.0.0, SVG Export Plug-In . SVG Version: 6.00 Build 0)  -->
<!DOCTYPE svg PUBLIC "-//W3C//DTD SVG 1.1//EN" "http://www.w3.org/Graphics/SVG/1.1/DTD/svg11.dtd">
<svg version="1.1" id="Camada_1" xmlns="http://www.w3.org/2000/svg" xmlns:xlink="http://www.w3.org/1999/xlink" x="0px" y="0px"
	 width="250px" height="250px" viewBox="0 0 250 250" enable-background="new 0 0 250 250" xml:space="preserve">
<g>
	<path fill="#15470F" stroke="#15470F" stroke-miterlimit="10" d="M124.696,244.902c0,0-0.721,0.112-2.119,0.081
		c-1.398-0.062-3.47,0.063-6.18-0.189c-5.414-0.342-13.363-1.19-23.178-3.813c-9.758-2.676-21.522-6.93-33.541-14.669
		c-6.006-3.836-12.087-8.456-17.939-13.985c-5.83-5.538-11.53-11.904-16.488-19.294c-2.449-3.707-4.88-7.559-6.976-11.696
		c-0.527-1.032-1.056-2.07-1.589-3.112c-0.484-1.067-0.968-2.138-1.456-3.217c-1.021-2.132-1.832-4.382-2.732-6.614
		c-0.468-1.11-0.81-2.274-1.214-3.418c-0.387-1.151-0.797-2.301-1.15-3.474c-0.329-1.181-0.659-2.365-0.991-3.556l-0.497-1.787
		l-0.417-1.816c-0.275-1.216-0.55-2.433-0.826-3.657c-0.27-1.225-0.447-2.474-0.676-3.714c-0.484-2.481-0.769-5.014-1.059-7.561
		c-0.175-1.269-0.234-2.554-0.324-3.84c-0.083-1.287-0.166-2.578-0.249-3.873c-0.022-1.297-0.043-2.599-0.066-3.904L5,125.833
		c0.005-0.757,0.039-1.318,0.058-1.988c0.048-1.29,0.098-2.583,0.148-3.881c0.067-1.305,0.221-2.652,0.33-3.98
		c0.184-2.682,0.62-5.308,0.982-7.967c0.9-5.286,2.001-10.602,3.629-15.816c0.718-2.635,1.709-5.196,2.602-7.796
		c0.491-1.284,1.03-2.553,1.543-3.833l0.783-1.918l0.874-1.882c9.198-20.148,24.226-38.269,43.297-51.12
		C78.264,12.778,101.309,5.268,124.702,5c2.966,0.062,5.766-0.023,8.737,0.228c1.462,0.113,2.946,0.136,4.394,0.323l4.359,0.497
		c5.785,0.837,11.544,1.964,17.156,3.628c5.591,1.711,11.099,3.714,16.379,6.212c5.267,2.513,10.397,5.305,15.238,8.531
		c19.427,12.845,34.604,31.361,43.641,51.833l0.864,1.911l0.771,1.947c0.507,1.3,1.036,2.587,1.519,3.889
		c0.88,2.634,1.848,5.231,2.531,7.903c1.565,5.285,2.599,10.659,3.429,15.994c0.327,2.681,0.729,5.34,0.872,8.01
		c0.091,1.332,0.225,2.658,0.275,3.985c0.031,1.327,0.064,2.651,0.097,3.97l0.02,0.989l0.011,0.493L245,125.59l-0.005,0.312
		l-0.056,1.927c-0.038,1.281-0.076,2.559-0.113,3.832c-0.101,1.312-0.199,2.62-0.298,3.922c-0.106,1.304-0.186,2.612-0.377,3.878
		c-0.328,2.55-0.624,5.087-1.125,7.573c-0.237,1.244-0.424,2.494-0.701,3.721c-0.283,1.226-0.567,2.445-0.85,3.662l-0.429,1.818
		l-0.51,1.79c-0.339,1.188-0.676,2.375-1.013,3.557c-0.363,1.173-0.78,2.323-1.171,3.475c-0.41,1.146-0.759,2.309-1.231,3.42
		c-3.459,9.011-7.842,17.282-12.864,24.631c-10.08,14.724-22.512,25.61-34.504,33.264c-12.026,7.736-23.795,12.009-33.559,14.675
		c-9.817,2.62-17.775,3.49-23.182,3.822c-2.702,0.25-4.787,0.059-6.188,0.117c-1.401,0.03-2.124-0.082-2.124-0.082H124.696z
		 M124.702,244.902c0,0,0.72-0.151,2.114-0.193c1.394-0.07,3.467-0.092,6.155-0.365c5.371-0.378,13.303-1.315,22.967-4.201
		c4.858-1.329,10.076-3.371,15.58-5.909c5.51-2.533,11.229-5.802,16.975-9.798c11.485-7.969,22.983-19.22,32.213-33.732
		c4.575-7.264,8.61-15.3,11.769-23.993c3.16-8.694,5.348-18.074,6.424-27.848c0.176-1.223,0.231-2.438,0.321-3.658
		c0.085-1.224,0.168-2.45,0.252-3.68c0.026-1.274,0.054-2.554,0.078-3.834l0.041-1.927l-0.05-1.822
		c-0.032-1.262-0.065-2.526-0.096-3.793c-0.047-1.268-0.178-2.534-0.261-3.808c-0.133-2.55-0.518-5.09-0.823-7.651
		c-0.786-5.094-1.763-10.229-3.254-15.276c-0.655-2.551-1.566-5.032-2.369-7.563c-0.447-1.248-0.941-2.483-1.413-3.73l-0.714-1.869
		l-0.808-1.835c-4.212-9.844-9.916-19.228-16.862-27.756c-3.462-4.279-7.319-8.257-11.371-12.054
		c-4.076-3.781-8.505-7.189-13.081-10.414c-4.6-3.199-9.494-5.985-14.53-8.514c-5.048-2.514-10.332-4.551-15.713-6.317
		c-5.387-1.766-10.935-3.03-16.536-4.014l-4.226-0.609c-1.41-0.228-2.815-0.287-4.227-0.439c-2.775-0.33-5.759-0.339-8.56-0.483
		c-5.705,0-11.419,0.281-17.082,1.051c-5.647,0.83-11.267,1.934-16.742,3.569c-5.452,1.685-10.824,3.648-15.97,6.099
		c-5.125,2.48-10.109,5.246-14.807,8.424c-9.393,6.35-17.804,14.033-24.819,22.701c-7.03,8.654-12.676,18.246-16.838,28.236
		l-0.796,1.864l-0.7,1.897c-0.463,1.266-0.948,2.519-1.388,3.785c-0.788,2.565-1.675,5.083-2.295,7.669
		c-1.43,5.116-2.339,10.312-3.055,15.455c-0.271,2.583-0.62,5.156-0.713,7.693c-0.065,1.277-0.176,2.523-0.204,3.812
		c-0.014,1.299-0.03,2.593-0.044,3.884c-0.005,0.62-0.03,1.347-0.022,1.875l0.063,1.892c0.043,1.26,0.084,2.514,0.126,3.765
		c0.101,1.247,0.202,2.489,0.302,3.729c0.106,1.238,0.183,2.476,0.373,3.695c1.173,9.797,3.416,19.184,6.627,27.88
		c3.207,8.698,7.283,16.722,11.882,23.979c9.279,14.499,20.791,25.738,32.29,33.701c5.749,3.996,11.473,7.254,16.985,9.788
		c5.506,2.538,10.727,4.562,15.587,5.888c9.667,2.882,17.607,3.775,22.971,4.145c2.682,0.271,4.769,0.354,6.163,0.422
		c1.397,0.04,2.119,0.191,2.119,0.191H124.702L124.702,244.902z"/>
</g>
<g>
	<path fill="none" stroke="#15470F" stroke-width="5" stroke-miterlimit="10" d="M182.443,88.317h-36V85.38l0,0v-1.047l-0.174-1.032
		l-0.683-1.905l-0.873-1.73l-1.382-1.556l-1.381-1.207l-1.905-1.048l-1.903-0.508l-1.031-0.19L136.063,75H113.92l0,0l-1.032,0.159
		l-1.048,0.19l-1.904,0.508l-1.905,1.048l-1.381,1.207l-1.38,1.556l-0.857,1.73l-0.698,1.905l-0.174,1.032v1.047v2.937H67.555l0,0
		h-0.698l-0.698,0.175l-0.508,0.349l-0.508,0.508l-0.54,0.349l-0.159,0.698l-0.349,0.699v0.683V116l0,0l0.159,1.381l0.349,1.206
		l0.698,1.206l0.857,1.048l1.047,0.857l1.047,0.698l1.366,0.349l1.396,0.175h47.921v-4.333l0,0l0.175-0.683l0.174-0.523l0.333-0.698
		l0.349-0.509l0.54-0.349l0.683-0.349l0.523-0.174l0.698-0.175h5.175l0,0l0.698,0.175l0.509,0.174l0.698,0.349l0.508,0.349
		l0.35,0.509l0.35,0.698l0.175,0.523l0.174,0.683v4.333h47.938l0,0l1.365-0.175l1.396-0.349l1.03-0.698l1.033-0.857l0.873-1.048
		l0.682-1.206l0.351-1.206l0.19-1.381V91.778l0,0v-0.683l-0.352-0.699l-0.189-0.698l-0.508-0.349l-0.508-0.508l-0.539-0.349
		l-0.684-0.175H182.443L182.443,88.317z M139.523,88.317H110.46V85.38l0,0v-0.698l0.349-0.524l0.175-0.683l0.508-0.523l0.524-0.349
		l0.524-0.349l0.698-0.175l0.683-0.159h22.144l0,0l0.697,0.159l0.684,0.175l0.522,0.349l0.524,0.349l0.523,0.523l0.158,0.683
		l0.35,0.524v0.698V88.317z"/>
	<path fill="none" stroke="#15470F" stroke-width="5" stroke-miterlimit="10" d="M182.443,88.317h-36V85.38l0,0v-1.047l-0.174-1.032
		l-0.683-1.905l-0.873-1.73l-1.382-1.556l-1.381-1.207l-1.905-1.048l-1.903-0.508l-1.031-0.19L136.063,75H113.92l0,0l-1.032,0.159
		l-1.048,0.19l-1.904,0.508l-1.905,1.048l-1.381,1.207l-1.38,1.556l-0.857,1.73l-0.698,1.905l-0.174,1.032v1.047v2.937H67.555l0,0
		h-0.698l-0.698,0.175l-0.508,0.349l-0.508,0.508l-0.54,0.349l-0.159,0.698l-0.349,0.699v0.683V116l0,0l0.159,1.381l0.349,1.206
		l0.698,1.206l0.857,1.048l1.047,0.857l1.047,0.698l1.366,0.349l1.396,0.175h47.921v-4.333l0,0l0.175-0.683l0.174-0.523l0.333-0.698
		l0.349-0.509l0.54-0.349l0.683-0.349l0.523-0.174l0.698-0.175h5.175l0,0l0.698,0.175l0.509,0.174l0.698,0.349l0.508,0.349
		l0.35,0.509l0.35,0.698l0.175,0.523l0.174,0.683v4.333h47.938l0,0l1.365-0.175l1.396-0.349l1.03-0.698l1.033-0.857l0.873-1.048
		l0.682-1.206l0.351-1.206l0.19-1.381V91.778l0,0v-0.683l-0.352-0.699l-0.189-0.698l-0.508-0.349l-0.508-0.508l-0.539-0.349
		l-0.684-0.175H182.443L182.443,88.317z M139.523,88.317H110.46V85.38l0,0v-0.698l0.349-0.524l0.175-0.683l0.508-0.523l0.524-0.349
		l0.524-0.349l0.698-0.175l0.683-0.159h22.144l0,0l0.697,0.159l0.684,0.175l0.522,0.349l0.524,0.349l0.523,0.523l0.158,0.683
		l0.35,0.524v0.698V88.317z"/>
	<path fill="none" stroke="#15470F" stroke-width="5" stroke-miterlimit="10" d="M131.047,124.302v3.285l0,0l-0.174,0.699
		l-0.175,0.682l-0.349,0.698l-0.351,0.352l-0.508,0.508l-0.698,0.349l-0.509,0.19h-0.698h-5.175l0,0h-0.698l-0.523-0.19
		l-0.683-0.349l-0.54-0.508l-0.349-0.352l-0.333-0.698l-0.174-0.682l-0.175-0.699v-3.285"/>
	<path fill="none" stroke="#15470F" stroke-width="5" stroke-miterlimit="10" d="M131.047,124.302v3.285l0,0l-0.174,0.699
		l-0.175,0.682l-0.349,0.698l-0.351,0.352l-0.508,0.508l-0.698,0.349l-0.509,0.19h-0.698h-5.175l0,0h-0.698l-0.523-0.19
		l-0.683-0.349l-0.54-0.508l-0.349-0.352l-0.333-0.698l-0.174-0.682l-0.175-0.699v-3.285"/>
	<path fill="none" stroke="#15470F" stroke-width="5" stroke-miterlimit="10" d="M64.095,121.54v50l0,0v0.683l0.349,0.523
		l0.159,0.684l0.54,0.523l0.508,0.349l0.508,0.349l0.698,0.16L67.555,175h114.888l0,0l0.684-0.189l0.684-0.16l0.539-0.349
		l0.508-0.349l0.508-0.523l0.189-0.684l0.352-0.523v-0.683v-50"/>
	<path fill="none" stroke="#15470F" stroke-width="5" stroke-miterlimit="10" d="M64.095,121.54v50l0,0v0.683l0.349,0.523
		l0.159,0.684l0.54,0.523l0.508,0.349l0.508,0.349l0.698,0.16L67.555,175h114.888l0,0l0.684-0.189l0.684-0.16l0.539-0.349
		l0.508-0.349l0.508-0.523l0.189-0.684l0.352-0.523v-0.683v-50"/>
</g>
</svg>
