<?xml version="1.0" encoding="utf-8"?>
<!-- Generator: Adobe Illustrator 16.0.0, SVG Export Plug-In . SVG Version: 6.00 Build 0)  -->
<!DOCTYPE svg PUBLIC "-//W3C//DTD SVG 1.1//EN" "http://www.w3.org/Graphics/SVG/1.1/DTD/svg11.dtd">
<svg version="1.1" id="Capa_1" xmlns="http://www.w3.org/2000/svg" xmlns:xlink="http://www.w3.org/1999/xlink" x="0px" y="0px"
	 width="60px" height="45px" viewBox="0 0 60 45" enable-background="new 0 0 60 45" xml:space="preserve">
<g>
	<g>
		<path fill="#FFFFFF" d="M54.727,0H5.273c-0.812,0-1.572,0.196-2.26,0.521l26.869,26.455l6.022-5.698l0-0.001c0,0,0,0,0,0
			L56.986,0.521C56.299,0.196,55.539,0,54.727,0z"/>
	</g>
</g>
<g>
	<g>
		<path fill="#FFFFFF" d="M59.472,2.969L39.634,22.5l19.837,19.532C59.8,41.355,60,40.607,60,39.808V5.192
			C60,4.394,59.801,3.646,59.472,2.969z"/>
	</g>
</g>
<g>
	<g>
		<path fill="#FFFFFF" d="M0.529,2.968C0.2,3.645,0,4.393,0,5.192v34.616c0,0.798,0.199,1.547,0.528,2.224L20.366,22.5L0.529,2.968z
			"/>
	</g>
</g>
<g>
	<g>
		<path fill="#FFFFFF" d="M37.148,24.947l-6.022,5.7c-0.344,0.339-0.793,0.507-1.243,0.507c-0.449,0-0.899-0.168-1.242-0.507
			l-5.789-5.7L3.014,44.479C3.701,44.803,4.461,45,5.273,45h49.453c0.812,0,1.571-0.196,2.26-0.521L37.148,24.947z"/>
	</g>
</g>
</svg>
