<?xml version="1.0" encoding="utf-8"?>
<!-- Generator: Adobe Illustrator 16.0.0, SVG Export Plug-In . SVG Version: 6.00 Build 0)  -->
<!DOCTYPE svg PUBLIC "-//W3C//DTD SVG 1.1//EN" "http://www.w3.org/Graphics/SVG/1.1/DTD/svg11.dtd">
<svg version="1.1" id="Camada_1" xmlns="http://www.w3.org/2000/svg" xmlns:xlink="http://www.w3.org/1999/xlink" x="0px" y="0px"
	 width="250px" height="250px" viewBox="0 0 250 250" enable-background="new 0 0 250 250" xml:space="preserve">
<g>
	<path fill="#15470F" d="M199.978,73.122c0-1.066-0.092-1.195-1.115-1.544c-0.163-0.056-0.326-0.126-0.496-0.152
		c-2.689-0.408-5.376-0.846-8.073-1.196c-1.008-0.131-1.786-0.33-2.211-1.428c-0.379-0.978-1.03-1.852-1.577-2.799
		c0.223-0.503,0.479-1.065,0.722-1.633c1.143-2.679,2.372-5.324,3.042-8.182c0.137-0.588-0.069-0.91-0.521-1.169
		c-2.773-1.59-5.554-3.165-8.317-4.769c-0.606-0.353-1.063-0.36-1.534,0.217c-2.025,2.486-4.099,4.934-6.086,7.45
		c-0.396,0.501-0.778,0.566-1.311,0.554c-0.939-0.021-1.88-0.012-2.82-0.005c-0.449,0.003-0.885,0.069-1.2-0.397
		c-0.472-0.699-0.957-1.394-1.497-2.04c-1.569-1.874-3.172-3.719-4.754-5.582c-0.438-0.515-0.871-0.583-1.477-0.226
		c-2.479,1.459-4.996,2.854-7.472,4.319c-1.667,0.986-1.72,1.047-1.018,2.959c0.993,2.71,2.118,5.372,3.154,8.067
		c0.106,0.276,0.089,0.692-0.046,0.951c-0.54,1.026-1.138,2.022-1.739,3.013c-0.128,0.21-0.35,0.479-0.557,0.507
		c-2.038,0.284-4.09,0.474-6.121,0.792c-1.361,0.214-2.702,0.573-4.043,0.907c-0.539,0.135-0.759,0.511-0.752,1.117
		c0.03,3.16,0.029,6.322,0,9.482c-0.007,0.574,0.191,0.933,0.698,1.079c0.924,0.265,1.853,0.543,2.797,0.695
		c2.031,0.325,4.066,0.624,6.111,0.833c1.073,0.111,1.967,0.313,2.302,1.495c0.065,0.233,0.193,0.455,0.319,0.666
		c0.414,0.692,1.144,1.362,1.178,2.068c0.037,0.754-0.577,1.54-0.911,2.312c-0.059,0.136-0.147,0.261-0.197,0.399
		c-0.845,2.341-1.674,4.689-2.539,7.023c-0.254,0.688,0.07,1.006,0.604,1.311c2.709,1.545,5.44,3.057,8.099,4.688
		c0.758,0.465,1.208,0.338,1.738-0.186c0.125-0.123,0.26-0.239,0.369-0.375c1.872-2.325,3.772-4.628,5.585-6.999
		c0.424-0.554,0.839-0.662,1.443-0.639c0.888,0.032,1.779,0.006,2.668,0.007c0.439,0,0.873-0.101,1.218,0.356
		c1.237,1.649,2.475,3.301,3.78,4.896c0.88,1.076,1.853,2.078,2.836,3.061c0.166,0.167,0.674,0.195,0.9,0.067
		c2.891-1.625,5.768-3.278,8.62-4.97c0.273-0.162,0.495-0.63,0.506-0.964c0.015-0.451-0.151-0.927-0.321-1.361
		c-1.081-2.758-2.191-5.505-3.271-8.265c-0.086-0.22-0.078-0.556,0.031-0.758c0.574-1.065,1.184-2.113,1.81-3.15
		c0.124-0.208,0.354-0.461,0.565-0.49c2.012-0.283,4.038-0.477,6.046-0.789c1.336-0.208,2.651-0.554,3.97-0.864
		c0.642-0.151,0.89-0.55,0.881-1.255C199.954,79.193,199.978,76.157,199.978,73.122z M180.738,78.126
		c-0.207,4.552-4.295,9.265-9.72,9.095c-5.137,0.156-9.854-4.514-9.612-10.043c0.203-4.638,4.494-9.526,10.182-9.25
		C176.17,68.151,180.998,72.42,180.738,78.126z"/>
	<path fill="#15470F" d="M200.001,167.808c0.016-0.846-0.324-1.241-1.04-1.468c-0.212-0.067-0.425-0.148-0.644-0.183
		c-2.688-0.408-5.387-0.769-8.063-1.242c-0.583-0.103-1.353,0.21-1.764-0.638c-0.528-1.084-1.2-2.099-1.777-3.161
		c-0.102-0.188-0.127-0.495-0.047-0.691c0.824-2.013,1.715-3.999,2.509-6.022c0.484-1.236,0.83-2.526,1.276-3.905
		c-0.232-0.254-0.411-0.569-0.682-0.726c-2.786-1.616-5.592-3.197-8.378-4.813c-0.591-0.343-1.03-0.314-1.474,0.225
		c-2.032,2.481-4.111,4.927-6.097,7.443c-0.437,0.555-0.862,0.593-1.441,0.571c-0.865-0.03-1.732-0.039-2.597,0
		c-0.604,0.028-1.023-0.06-1.457-0.608c-1.945-2.462-3.978-4.855-5.968-7.282c-0.5-0.61-0.979-0.721-1.711-0.288
		c-2.752,1.626-5.545,3.184-8.315,4.778c-0.428,0.246-0.632,0.597-0.44,1.135c0.188,0.532,0.237,1.115,0.444,1.638
		c1.013,2.573,2.069,5.128,3.076,7.703c0.108,0.277,0.107,0.697-0.026,0.954c-0.549,1.049-1.161,2.065-1.772,3.08
		c-0.115,0.192-0.317,0.44-0.508,0.466c-2.038,0.281-4.089,0.474-6.121,0.791c-1.362,0.213-2.703,0.571-4.043,0.9
		c-0.58,0.141-0.789,0.538-0.782,1.17c0.033,3.11,0.035,6.222,0,9.33c-0.009,0.659,0.196,1.043,0.812,1.231
		c0.283,0.087,0.553,0.242,0.842,0.286c2.689,0.416,5.389,0.771,8.066,1.25c0.582,0.104,1.355-0.223,1.771,0.62
		c0.535,1.084,1.202,2.103,1.789,3.162c0.099,0.181,0.164,0.462,0.095,0.636c-0.341,0.848-0.779,1.656-1.097,2.511
		c-0.866,2.334-1.679,4.688-2.533,7.026c-0.239,0.653,0.088,0.96,0.595,1.25c2.711,1.545,5.442,3.054,8.099,4.688
		c0.786,0.484,1.251,0.34,1.796-0.205c0.124-0.125,0.259-0.24,0.368-0.376c1.865-2.328,3.754-4.641,5.574-7.004
		c0.403-0.525,0.812-0.625,1.393-0.602c0.888,0.036,1.779,0.014,2.668,0.009c0.469-0.002,0.919-0.088,1.276,0.394
		c1.246,1.674,2.493,3.348,3.809,4.966c0.83,1.022,1.786,1.94,2.671,2.918c0.369,0.407,0.714,0.306,1.125,0.066
		c2.504-1.458,5.035-2.868,7.519-4.356c1.697-1.018,1.946-0.597,1.125-2.937c-0.98-2.793-2.173-5.512-3.251-8.271
		c-0.08-0.199-0.064-0.507,0.036-0.694c0.588-1.086,1.206-2.158,1.839-3.22c0.112-0.19,0.331-0.417,0.525-0.444
		c2.013-0.278,4.04-0.474,6.046-0.788c1.36-0.214,2.698-0.57,4.04-0.886c0.618-0.146,0.844-0.541,0.836-1.206
		C199.958,173.929,199.941,170.866,200.001,167.808z M180.739,172.886c-0.211,4.626-4.486,9.285-9.666,9.071
		c-4.988,0.261-9.937-4.435-9.669-10.059c0.22-4.62,4.488-9.521,10.203-9.233C176.173,162.895,181.002,167.151,180.739,172.886z"/>
	<path fill="#15470F" d="M149.957,118.287c-0.016-1.384-0.429-2.4-2.112-2.663c-3.71-0.582-7.425-1.125-11.133-1.711
		c-0.245-0.038-0.566-0.249-0.659-0.462c-0.813-1.897-1.593-3.808-2.349-5.729c-0.09-0.229-0.052-0.577,0.062-0.802
		c0.2-0.397,0.49-0.753,0.767-1.108c1.844-2.382,3.689-4.764,5.546-7.136c0.832-1.063,0.96-2.025,0.153-3.092
		c-1.065-1.411-2.164-2.816-3.394-4.083c-2.069-2.133-4.224-4.19-6.401-6.215c-1.488-1.386-2.277-2.108-4.446-0.426
		c-2.719,2.109-5.48,4.164-8.242,6.213c-0.226,0.167-0.657,0.259-0.905,0.161c-1.736-0.681-3.452-1.412-5.163-2.155
		c-0.189-0.082-0.381-0.313-0.437-0.513c-0.113-0.404-0.128-0.834-0.191-1.252c-0.503-3.318-1.067-6.628-1.49-9.957
		c-0.227-1.784-1.368-2.326-2.717-2.338c-4.565-0.041-9.132-0.068-13.695,0.016c-1.381,0.025-2.223,0.122-2.686,2.109
		c-0.349,1.496-0.655,3.005-0.873,4.523c-0.322,2.248-0.537,4.51-0.832,6.761c-0.032,0.238-0.243,0.557-0.454,0.649
		c-1.728,0.756-3.469,1.482-5.224,2.176c-0.248,0.099-0.641,0.081-0.865-0.054c-0.531-0.321-1.003-0.741-1.495-1.126
		c-2.36-1.844-4.71-3.699-7.081-5.529c-0.998-0.771-1.928-0.872-2.816-0.204c-1.47,1.106-2.941,2.23-4.291,3.477
		c-1.484,1.371-2.852,2.871-4.233,4.351c-0.936,1.003-1.839,2.042-2.699,3.112c-1.097,1.366-0.86,2.202,0.127,3.485
		c2.099,2.729,4.236,5.427,6.387,8.116c0.338,0.423,0.331,0.744,0.125,1.207c-0.706,1.591-1.391,3.193-2.026,4.813
		c-0.19,0.488-0.402,0.769-0.95,0.725c-0.167-0.013-0.339,0.053-0.511,0.08c-2.51,0.392-5.02,0.788-7.532,1.173
		c-1.128,0.173-2.278,0.244-3.386,0.502c-1.139,0.266-1.779,1.188-1.796,2.769c-0.048,4.515-0.063,9.032,0.008,13.545
		c0.024,1.578,0.509,2.39,2.388,2.638c1.771,0.233,3.538,0.516,5.303,0.794c1.842,0.29,3.684,0.583,5.517,0.925
		c0.274,0.051,0.612,0.318,0.726,0.573c0.793,1.77,1.501,3.579,2.315,5.34c0.263,0.569,0.179,0.926-0.181,1.383
		c-2.069,2.618-4.119,5.252-6.163,7.892c-0.938,1.211-1.024,2.058-0.088,3.259c1.208,1.551,2.473,3.072,3.85,4.471
		c2.19,2.223,4.481,4.348,6.756,6.485c0.875,0.821,1.955,0.825,2.915,0.104c2.948-2.222,5.894-4.445,8.836-6.673
		c0.338-0.256,0.625-0.332,1.059-0.136c1.61,0.725,3.238,1.416,4.882,2.062c0.417,0.162,0.589,0.342,0.641,0.777
		c0.146,1.237,0.335,2.469,0.516,3.703c0.292,1.989,0.59,3.979,0.888,5.968c0.099,0.664,0.183,1.332,0.32,1.989
		c0.209,0.998,1.35,1.699,2.756,1.705c2.232,0.01,4.464,0.003,6.697,0.003c2.232,0,4.466,0.063,6.696-0.02
		c1.716-0.063,2.448-0.313,2.881-2.168c0.348-1.492,0.64-3.003,0.854-4.519c0.322-2.271,0.542-4.557,0.843-6.832
		c0.031-0.231,0.285-0.53,0.508-0.625c1.714-0.729,3.442-1.426,5.179-2.098c0.235-0.091,0.601-0.094,0.804,0.03
		c0.529,0.326,1.005,0.739,1.497,1.124c2.378,1.861,4.748,3.733,7.136,5.58c0.878,0.68,1.811,0.922,2.796,0.151
		c0.942-0.735,2.002-1.348,2.838-2.186c2.664-2.669,5.275-5.39,7.852-8.145c1.543-1.65,1.58-2.595,0.428-4.053
		c-2.149-2.721-4.277-5.458-6.442-8.164c-0.325-0.41-0.284-0.72-0.099-1.146c0.72-1.639,1.438-3.281,2.086-4.95
		c0.172-0.437,0.377-0.596,0.803-0.603c0.22-0.003,0.439-0.063,0.66-0.097c2.191-0.338,4.382-0.678,6.574-1.01
		c1.424-0.215,2.863-0.352,4.27-0.649c1.137-0.239,1.796-1.167,1.814-2.751C150.011,127.317,150.011,122.802,149.957,118.287z
		 M100.351,142.066c-9.569-0.018-17.302-7.739-17.285-17.258c0.018-9.517,7.792-17.234,17.338-17.212
		c9.565,0.022,17.301,7.751,17.282,17.266C117.667,134.391,109.915,142.085,100.351,142.066z"/>
</g>
<g>
	<path fill="#15470F" d="M124.706,245c0,0-0.723-0.018-2.121-0.048c-1.4-0.062-3.473-0.001-6.183-0.254
		c-5.417-0.341-13.371-1.222-23.189-3.849c-9.764-2.676-21.529-6.953-33.546-14.692c-6.006-3.839-12.086-8.466-17.936-13.994
		c-5.829-5.537-11.523-11.908-16.48-19.29c-2.446-3.706-4.875-7.555-6.972-11.689c-0.527-1.033-1.056-2.069-1.588-3.111
		c-0.483-1.065-0.968-2.137-1.455-3.211c-1.022-2.133-1.832-4.379-2.731-6.61c-0.468-1.108-0.81-2.271-1.214-3.414
		c-0.388-1.147-0.796-2.297-1.15-3.469c-0.328-1.181-0.658-2.363-0.99-3.554l-0.497-1.783l-0.418-1.814
		c-0.274-1.214-0.548-2.431-0.825-3.652c-0.269-1.224-0.448-2.471-0.677-3.711c-0.484-2.479-0.769-5.008-1.06-7.552
		c-0.177-1.267-0.235-2.551-0.326-3.837c-0.082-1.283-0.166-2.574-0.249-3.869C5.078,130.3,5.055,129,5.033,127.697L5,125.736
		c0.005-0.752,0.039-1.317,0.056-1.986c0.049-1.289,0.098-2.583,0.147-3.878c0.066-1.306,0.221-2.649,0.329-3.978
		c0.182-2.678,0.618-5.302,0.979-7.958c0.897-5.28,1.997-10.593,3.623-15.804c0.717-2.633,1.707-5.192,2.598-7.791
		c0.491-1.284,1.029-2.552,1.543-3.831l0.781-1.917l0.874-1.881c9.188-20.137,24.217-38.253,43.298-51.094
		C78.253,12.751,101.312,5.256,124.712,5c2.963,0.063,5.769-0.021,8.739,0.232c1.462,0.113,2.947,0.137,4.395,0.324l4.359,0.498
		c5.786,0.84,11.545,1.967,17.156,3.633c5.592,1.712,11.1,3.714,16.379,6.211c5.264,2.514,10.396,5.304,15.236,8.528
		c19.424,12.835,34.598,31.333,43.631,51.785l0.863,1.909l0.771,1.944c0.507,1.297,1.036,2.583,1.52,3.884
		c0.878,2.632,1.847,5.225,2.527,7.894c1.567,5.278,2.601,10.647,3.429,15.975c0.327,2.678,0.729,5.333,0.873,8
		c0.09,1.332,0.227,2.656,0.273,3.981c0.033,1.325,0.064,2.647,0.099,3.966l0.021,0.986l0.012,0.494l0.005,0.246
		c0.004,0.068-0.005,0.29-0.005,0.31l-0.057,1.925c-0.039,1.282-0.074,2.56-0.113,3.834c-0.1,1.31-0.198,2.613-0.297,3.916
		c-0.106,1.301-0.186,2.606-0.377,3.871c-0.328,2.547-0.623,5.081-1.123,7.564c-0.237,1.242-0.424,2.492-0.7,3.717
		c-0.283,1.223-0.567,2.441-0.849,3.657l-0.431,1.815l-0.509,1.789c-0.339,1.188-0.678,2.371-1.014,3.551
		c-0.361,1.172-0.777,2.32-1.168,3.472c-0.41,1.146-0.758,2.307-1.231,3.417c-3.455,9.002-7.835,17.266-12.854,24.609
		c-4.989,7.369-10.686,13.744-16.527,19.274c-5.859,5.524-11.952,10.14-17.959,13.981c-12.025,7.736-23.796,12.018-33.564,14.685
		c-9.82,2.623-17.783,3.494-23.191,3.827c-2.704,0.249-4.791,0.188-6.19,0.246c-1.403,0.027-2.125,0.045-2.125,0.045h-0.008V245z
		 M124.711,244.503c0,0,0.72-0.021,2.114-0.063c1.396-0.068,3.471-0.025,6.161-0.301c5.375-0.375,13.312-1.279,22.984-4.158
		c4.862-1.33,10.086-3.352,15.596-5.885c5.516-2.529,11.244-5.783,16.996-9.775c11.502-7.961,23.024-19.196,32.274-33.706
		c4.586-7.265,8.63-15.296,11.794-23.993c3.168-8.694,5.361-18.077,6.438-27.854c0.177-1.224,0.232-2.438,0.322-3.66
		c0.086-1.223,0.17-2.45,0.254-3.682c0.026-1.273,0.054-2.551,0.08-3.833l0.039-1.926l-0.049-1.826
		c-0.033-1.262-0.064-2.526-0.098-3.794c-0.045-1.268-0.178-2.535-0.26-3.808c-0.133-2.552-0.519-5.092-0.824-7.654
		c-0.789-5.096-1.768-10.232-3.26-15.281c-0.655-2.551-1.569-5.034-2.371-7.566c-0.449-1.248-0.944-2.484-1.416-3.731l-0.717-1.87
		l-0.809-1.835c-4.219-9.847-9.936-19.23-16.891-27.761c-3.469-4.279-7.334-8.257-11.391-12.054
		c-4.082-3.781-8.518-7.189-13.1-10.415c-4.607-3.199-9.51-5.983-14.553-8.51c-5.055-2.512-10.35-4.548-15.734-6.312
		c-5.395-1.764-10.948-3.023-16.559-4.005l-4.228-0.611c-1.411-0.227-2.819-0.285-4.231-0.436c-2.78-0.329-5.764-0.335-8.567-0.479
		c-5.711,0.002-11.432,0.286-17.099,1.058c-5.653,0.831-11.277,1.94-16.757,3.577c-5.457,1.686-10.833,3.65-15.983,6.102
		c-5.129,2.481-10.117,5.246-14.819,8.422c-9.402,6.349-17.821,14.03-24.846,22.692c-7.038,8.65-12.697,18.237-16.868,28.227
		l-0.797,1.863l-0.706,1.897c-0.464,1.266-0.95,2.518-1.392,3.785c-0.79,2.564-1.681,5.082-2.302,7.668
		c-1.435,5.116-2.347,10.312-3.066,15.453c-0.272,2.584-0.623,5.156-0.717,7.695c-0.066,1.277-0.179,2.523-0.207,3.813
		c-0.015,1.299-0.031,2.592-0.047,3.883c-0.007,0.621-0.031,1.344-0.022,1.875l0.063,1.894c0.041,1.259,0.082,2.515,0.125,3.767
		c0.101,1.245,0.201,2.489,0.301,3.729c0.107,1.238,0.183,2.476,0.373,3.695c1.174,9.801,3.417,19.189,6.635,27.887
		c3.211,8.699,7.294,16.723,11.904,23.98c9.297,14.497,20.833,25.726,32.346,33.68c5.757,3.992,11.488,7.246,17.006,9.772
		c5.513,2.534,10.74,4.554,15.604,5.878c9.677,2.877,17.622,3.771,22.989,4.139c2.684,0.271,4.772,0.226,6.167,0.293
		c1.399,0.041,2.12,0.063,2.12,0.063h-0.006v-0.001H124.711z"/>
</g>
</svg>
