<?xml version="1.0" encoding="utf-8"?>
<!-- Generator: Adobe Illustrator 16.0.0, SVG Export Plug-In . SVG Version: 6.00 Build 0)  -->
<!DOCTYPE svg PUBLIC "-//W3C//DTD SVG 1.1//EN" "http://www.w3.org/Graphics/SVG/1.1/DTD/svg11.dtd">
<svg version="1.1" id="Layer_1" xmlns="http://www.w3.org/2000/svg" xmlns:xlink="http://www.w3.org/1999/xlink" x="0px" y="0px"
	 width="100px" height="100px" viewBox="0.5 250.5 100 100" enable-background="new 0.5 250.5 100 100" xml:space="preserve">
<linearGradient id="SVGID_1_" gradientUnits="userSpaceOnUse" x1="-686.0176" y1="521.5469" x2="-596.2415" y2="618.0533" gradientTransform="matrix(0 -0.9678 0.9004 0 -462.416 -319.9155)">
	<stop  offset="0" style="stop-color:#FFDD55"/>
	<stop  offset="0.5" style="stop-color:#FF543E"/>
	<stop  offset="1" style="stop-color:#C837AB"/>
</linearGradient>
<path fill="url(#SVGID_1_)" d="M7.023,257.433c-7.836,8.144-6.232,16.785-6.232,43.051c0,21.813-3.806,43.684,16.112,48.827
	c6.22,1.604,61.328,1.604,67.54-0.009c8.292-2.136,15.04-8.866,15.962-20.591c0.129-1.637,0.129-54.784-0.004-56.454
	c-0.98-12.489-8.671-19.693-18.804-21.147c-2.322-0.341-2.788-0.44-14.704-0.457C24.627,250.669,15.362,248.791,7.023,257.433z"/>
<path fill="#FFFFFF" d="M50.499,263.673c-15.086,0-29.412-1.338-34.883,12.705c-2.26,5.8-1.932,13.328-1.932,24.114
	c0,9.465-0.303,18.364,1.932,24.114c5.459,14.051,19.901,12.705,34.875,12.705c14.446,0,29.341,1.504,34.879-12.705
	c2.264-5.858,1.932-13.278,1.932-24.114c0-14.384,0.793-23.665-6.182-30.637c-7.063-7.063-16.615-6.183-30.637-6.183H50.499z
	 M47.2,270.313c31.468-0.05,35.473-3.549,33.263,45.045c-0.785,17.192-13.873,15.307-29.96,15.307
	c-29.333,0-30.176-0.84-30.176-30.188c0-29.682,2.327-30.146,26.873-30.172V270.313z M70.15,276.42c-2.439,0-4.417,1.978-4.417,4.42
	c0,2.436,1.978,4.413,4.417,4.413s4.417-1.978,4.417-4.413C74.567,278.397,72.589,276.42,70.15,276.42z M50.499,281.588
	c-10.441,0-18.904,8.468-18.904,18.904c0,10.445,8.463,18.904,18.904,18.904s18.9-8.459,18.9-18.904
	C69.398,290.056,60.939,281.588,50.499,281.588z M50.499,288.219c16.224,0,16.245,24.547,0,24.547
	C34.278,312.766,34.253,288.219,50.499,288.219z"/>
</svg>
