<?xml version="1.0" encoding="utf-8"?>
<!-- Generator: Adobe Illustrator 16.0.0, SVG Export Plug-In . SVG Version: 6.00 Build 0)  -->
<!DOCTYPE svg PUBLIC "-//W3C//DTD SVG 1.1//EN" "http://www.w3.org/Graphics/SVG/1.1/DTD/svg11.dtd">
<svg version="1.1" id="Layer_1" xmlns="http://www.w3.org/2000/svg" xmlns:xlink="http://www.w3.org/1999/xlink" x="0px" y="0px"
	 width="75px" height="75px" viewBox="0 0 75 75" enable-background="new 0 0 75 75" xml:space="preserve">
<rect x="3.125" y="4.75" fill="#FFFFFF" width="68.125" height="64.25"/>
<path fill="#0077B7" d="M68.216,0H6.784C3.038,0,0,3.038,0,6.784v61.432C0,71.962,3.038,75,6.784,75h61.432
	C71.962,75,75,71.962,75,68.216V6.784C75,3.038,71.962,0,68.216,0z M23.208,64.76c0,1.09-0.884,1.974-1.974,1.974H12.83
	c-1.09,0-1.975-0.884-1.975-1.974V29.529c0-1.09,0.884-1.974,1.975-1.974h8.404c1.09,0,1.974,0.884,1.974,1.974V64.76z
	 M17.032,24.234c-4.41,0-7.984-3.575-7.984-7.984c0-4.41,3.575-7.984,7.984-7.984c4.409,0,7.984,3.575,7.984,7.984
	C25.016,20.659,21.441,24.234,17.032,24.234z M67.129,64.919c0,1.002-0.813,1.815-1.815,1.815h-9.018
	c-1.003,0-1.816-0.813-1.816-1.815V48.394c0-2.466,0.724-10.803-6.442-10.803c-5.558,0-6.686,5.707-6.912,8.268v19.06
	c0,1.002-0.813,1.815-1.815,1.815h-8.723c-1.002,0-1.815-0.813-1.815-1.815V29.37c0-1.002,0.813-1.815,1.815-1.815h8.723
	c1.002,0,1.815,0.813,1.815,1.815v3.074c2.061-3.093,5.124-5.48,11.645-5.48c14.441,0,14.358,13.491,14.358,20.904V64.919
	L67.129,64.919z"/>
</svg>
