<?xml version="1.0" encoding="utf-8"?>
<!-- Generator: Adobe Illustrator 16.0.0, SVG Export Plug-In . SVG Version: 6.00 Build 0)  -->
<!DOCTYPE svg PUBLIC "-//W3C//DTD SVG 1.1//EN" "http://www.w3.org/Graphics/SVG/1.1/DTD/svg11.dtd">
<svg version="1.1" id="Camada_1" xmlns="http://www.w3.org/2000/svg" xmlns:xlink="http://www.w3.org/1999/xlink" x="0px" y="0px"
	 width="75px" height="75px" viewBox="0 0 75 75" enable-background="new 0 0 75 75" xml:space="preserve">
<path fill="#FFFFFF" d="M75.014,9.716c0,2.305-1.871,4.175-4.188,4.175H4.169c-2.312,0-4.183-1.871-4.183-4.175l0,0
	c0-2.304,1.875-4.176,4.183-4.176h66.657C73.134,5.54,75.014,7.412,75.014,9.716L75.014,9.716z"/>
<path fill="#FFFFFF" d="M75.014,37.503c0,2.308-1.871,4.172-4.188,4.172H4.169c-2.312,0-4.183-1.868-4.183-4.172l0,0
	c0-2.305,1.875-4.175,4.183-4.175h66.657C73.134,33.328,75.014,35.199,75.014,37.503L75.014,37.503z"/>
<path fill="#FFFFFF" d="M75.014,65.284c0,2.308-1.871,4.176-4.188,4.176H4.169c-2.308,0-4.183-1.869-4.183-4.176l0,0
	c0-2.305,1.875-4.176,4.183-4.176h66.657C73.134,61.107,75.014,62.983,75.014,65.284L75.014,65.284z"/>
</svg>
