<?xml version="1.0" encoding="utf-8"?>
<!-- Generator: Adobe Illustrator 16.0.0, SVG Export Plug-In . SVG Version: 6.00 Build 0)  -->
<!DOCTYPE svg PUBLIC "-//W3C//DTD SVG 1.1//EN" "http://www.w3.org/Graphics/SVG/1.1/DTD/svg11.dtd">
<svg version="1.1" id="Camada_1" xmlns="http://www.w3.org/2000/svg" xmlns:xlink="http://www.w3.org/1999/xlink" x="0px" y="0px"
	 width="250px" height="250px" viewBox="0 0 250 250" enable-background="new 0 0 250 250" xml:space="preserve">
<g>
	<circle fill="none" stroke="#15470F" stroke-width="5" stroke-miterlimit="10" cx="63.938" cy="148.813" r="10"/>
	<circle fill="none" stroke="#15470F" stroke-width="5" stroke-miterlimit="10" cx="123.776" cy="184.539" r="10"/>
	<circle fill="none" stroke="#15470F" stroke-width="5" stroke-miterlimit="10" cx="186.701" cy="131.48" r="10"/>
	<circle fill="none" stroke="#15470F" stroke-width="5" stroke-miterlimit="10" cx="173" cy="67.808" r="10"/>
	<circle fill="none" stroke="#15470F" stroke-width="5" stroke-miterlimit="10" cx="88.008" cy="73.901" r="10"/>
	<path fill="none" stroke="#15470F" stroke-width="5" stroke-miterlimit="10" d="M103.919,123.317L103.919,123.317l0.145-2.128
		l0.271-2.26l0.57-2.13l0.715-1.986l0.986-1.975l1.129-1.699l1.272-1.701l1.431-1.559l1.556-1.401l1.547-1.274l1.842-1.143
		l1.988-0.985l1.973-0.701l2.129-0.571l2.117-0.286l2.272-0.13l0,0l2.258,0.13l2.26,0.286l1.988,0.571l2.115,0.701l1.844,0.985
		l1.844,1.143l1.689,1.274l1.557,1.401l1.428,1.559l1.273,1.701l1.117,1.699l0.854,1.975l0.855,1.986l0.414,2.13l0.416,2.26v2.128
		l0,0v2.26l-0.416,2.271l-0.414,2.118l-0.855,1.984l-0.854,1.845l-1.117,1.831l-1.273,1.699l-1.428,1.56l-1.557,1.401l-1.689,1.271
		l-1.844,1.146l-1.844,0.846l-2.115,0.855l-1.988,0.43l-2.26,0.415l-2.258,0.143l0,0l-2.272-0.143l-2.117-0.415l-2.129-0.43
		l-1.973-0.855l-1.988-0.846l-1.842-1.146l-1.547-1.271l-1.556-1.401l-1.431-1.56l-1.272-1.699l-1.129-1.831l-0.986-1.845
		l-0.715-1.984l-0.57-2.118l-0.271-2.271L103.919,123.317L103.919,123.317z"/>
	<path fill="none" stroke="#15470F" stroke-width="5" stroke-miterlimit="10" d="M103.919,123.317L103.919,123.317l0.145-2.128
		l0.271-2.26l0.57-2.13l0.715-1.986l0.986-1.975l1.129-1.699l1.272-1.701l1.431-1.559l1.556-1.401l1.547-1.274l1.842-1.143
		l1.988-0.985l1.973-0.701l2.129-0.571l2.117-0.286l2.272-0.13l0,0l2.258,0.13l2.26,0.286l1.988,0.571l2.115,0.701l1.844,0.985
		l1.844,1.143l1.689,1.274l1.557,1.401l1.428,1.559l1.273,1.701l1.117,1.699l0.854,1.975l0.855,1.986l0.414,2.13l0.416,2.26v2.128
		l0,0v2.26l-0.416,2.271l-0.414,2.118l-0.855,1.984l-0.854,1.845l-1.117,1.831l-1.273,1.699l-1.428,1.56l-1.557,1.401l-1.689,1.271
		l-1.844,1.146l-1.844,0.846l-2.115,0.855l-1.988,0.43l-2.26,0.415l-2.258,0.143l0,0l-2.272-0.143l-2.117-0.415l-2.129-0.43
		l-1.973-0.855l-1.988-0.846l-1.842-1.146l-1.547-1.271l-1.556-1.401l-1.431-1.56l-1.272-1.699l-1.129-1.831l-0.986-1.845
		l-0.715-1.984l-0.57-2.118l-0.271-2.271L103.919,123.317L103.919,123.317z"/>
	<path fill="none" stroke="#15470F" stroke-width="5" stroke-miterlimit="10" d="M93.584,81.417l18.969,24.632"/>
	<path fill="none" stroke="#15470F" stroke-width="5" stroke-miterlimit="10" d="M93.584,81.417l18.969,24.632"/>
	<path fill="none" stroke="#15470F" stroke-width="5" stroke-miterlimit="10" d="M140.144,106.607l26.748-31.123"/>
	<path fill="none" stroke="#15470F" stroke-width="5" stroke-miterlimit="10" d="M140.144,106.607l26.748-31.123"/>
	<path fill="none" stroke="#15470F" stroke-width="5" stroke-miterlimit="10" d="M177.228,129.967l-29.578-3.819"/>
	<path fill="none" stroke="#15470F" stroke-width="5" stroke-miterlimit="10" d="M177.228,129.967l-29.578-3.819"/>
	<path fill="none" stroke="#15470F" stroke-width="5" stroke-miterlimit="10" d="M123.863,174.696l1.141-29.448"/>
	<path fill="none" stroke="#15470F" stroke-width="5" stroke-miterlimit="10" d="M123.863,174.696l1.141-29.448"/>
	<path fill="none" stroke="#15470F" stroke-width="5" stroke-miterlimit="10" d="M72.783,145.391l32.837-13.594"/>
	<path fill="none" stroke="#15470F" stroke-width="5" stroke-miterlimit="10" d="M72.783,145.391l32.837-13.594"/>
</g>
<g>
	<path fill="#15470F" d="M124.706,245c0,0-0.722-0.018-2.121-0.048c-1.399-0.061-3.473-0.001-6.184-0.255
		c-5.417-0.34-13.371-1.221-23.189-3.847c-9.763-2.676-21.528-6.953-33.547-14.694c-6.006-3.837-12.085-8.464-17.936-13.993
		c-5.827-5.537-11.522-11.908-16.48-19.29c-2.447-3.706-4.876-7.555-6.973-11.69c-0.527-1.032-1.055-2.069-1.588-3.111
		c-0.481-1.065-0.966-2.137-1.455-3.211c-1.021-2.133-1.83-4.379-2.73-6.61c-0.468-1.108-0.809-2.27-1.213-3.415
		c-0.387-1.149-0.797-2.298-1.15-3.47c-0.328-1.18-0.659-2.363-0.991-3.551l-0.496-1.786l-0.418-1.814
		c-0.273-1.213-0.549-2.431-0.826-3.653c-0.269-1.222-0.447-2.47-0.675-3.711c-0.484-2.478-0.769-5.005-1.061-7.55
		c-0.176-1.268-0.233-2.552-0.324-3.836c-0.084-1.286-0.167-2.575-0.249-3.87c-0.023-1.297-0.046-2.596-0.067-3.9L5,125.736
		c0.005-0.755,0.039-1.317,0.057-1.987c0.049-1.29,0.098-2.583,0.146-3.879c0.066-1.305,0.221-2.649,0.329-3.975
		c0.182-2.679,0.619-5.302,0.979-7.96c0.897-5.28,1.996-10.592,3.622-15.802c0.716-2.635,1.707-5.193,2.597-7.792
		c0.492-1.283,1.028-2.551,1.542-3.831l0.783-1.917l0.873-1.882c9.189-20.137,24.219-38.252,43.299-51.094
		C78.251,12.751,101.313,5.257,124.711,5c2.965,0.063,5.768-0.021,8.74,0.233c1.463,0.112,2.946,0.136,4.395,0.325l4.358,0.498
		c5.787,0.84,11.545,1.967,17.158,3.634c5.592,1.711,11.1,3.713,16.378,6.211c5.267,2.513,10.398,5.303,15.238,8.528
		c19.424,12.835,34.599,31.333,43.631,51.784l0.863,1.909l0.771,1.945c0.507,1.297,1.036,2.584,1.519,3.884
		c0.879,2.633,1.846,5.225,2.528,7.894c1.565,5.278,2.6,10.647,3.43,15.975c0.326,2.677,0.728,5.334,0.871,8
		c0.09,1.331,0.226,2.656,0.275,3.981c0.033,1.325,0.065,2.648,0.097,3.965l0.021,0.987l0.01,0.494l0.005,0.246
		c0.004,0.068-0.004,0.29-0.005,0.309l-0.057,1.925c-0.037,1.282-0.074,2.559-0.112,3.833c-0.101,1.309-0.199,2.614-0.298,3.916
		c-0.107,1.301-0.184,2.607-0.375,3.871c-0.329,2.547-0.623,5.082-1.124,7.565c-0.238,1.243-0.424,2.491-0.7,3.717
		c-0.284,1.223-0.567,2.442-0.85,3.657l-0.429,1.815l-0.51,1.789c-0.339,1.188-0.677,2.372-1.013,3.552
		c-0.363,1.172-0.778,2.32-1.17,3.471c-0.41,1.145-0.758,2.307-1.23,3.417c-3.456,9.001-7.836,17.266-12.855,24.609
		c-4.989,7.37-10.687,13.745-16.528,19.275c-5.86,5.525-11.952,10.14-17.96,13.98c-12.025,7.738-23.795,12.019-33.564,14.686
		c-9.819,2.624-17.784,3.494-23.191,3.827c-2.705,0.249-4.791,0.188-6.191,0.246c-1.401,0.028-2.125,0.045-2.125,0.045L124.706,245
		L124.706,245z M124.711,244.503c0,0,0.72-0.021,2.116-0.063c1.394-0.069,3.471-0.026,6.16-0.301
		c5.376-0.376,13.313-1.281,22.985-4.159c4.863-1.329,10.087-3.351,15.598-5.885c5.516-2.529,11.243-5.782,16.997-9.775
		c11.502-7.961,23.024-19.196,32.274-33.706c4.586-7.264,8.629-15.296,11.795-23.994c3.168-8.693,5.359-18.076,6.438-27.853
		c0.175-1.224,0.232-2.438,0.322-3.66c0.083-1.223,0.169-2.45,0.253-3.681c0.026-1.274,0.054-2.552,0.079-3.834l0.041-1.925
		l-0.048-1.825c-0.033-1.262-0.065-2.526-0.097-3.796c-0.046-1.269-0.178-2.535-0.261-3.808c-0.133-2.552-0.518-5.092-0.824-7.654
		c-0.789-5.096-1.766-10.232-3.261-15.281c-0.654-2.551-1.568-5.034-2.371-7.566c-0.448-1.248-0.943-2.484-1.414-3.731l-0.717-1.869
		l-0.809-1.836c-4.219-9.846-9.935-19.23-16.891-27.76c-3.468-4.28-7.331-8.258-11.391-12.055
		c-4.081-3.781-8.516-7.188-13.099-10.414c-4.607-3.198-9.509-5.983-14.552-8.51c-5.056-2.511-10.349-4.548-15.735-6.311
		c-5.394-1.765-10.948-3.023-16.557-4.005l-4.229-0.608c-1.412-0.226-2.82-0.285-4.233-0.436c-2.78-0.329-5.763-0.335-8.569-0.479
		c-5.711,0.002-11.431,0.286-17.1,1.059c-5.653,0.831-11.277,1.94-16.757,3.576c-5.457,1.686-10.833,3.65-15.983,6.103
		c-5.129,2.481-10.117,5.244-14.819,8.422c-9.402,6.348-17.822,14.03-24.845,22.692c-7.039,8.65-12.697,18.238-16.868,28.227
		l-0.797,1.863l-0.706,1.897c-0.463,1.266-0.952,2.518-1.392,3.785c-0.789,2.565-1.682,5.082-2.302,7.668
		c-1.435,5.116-2.346,10.31-3.066,15.453c-0.272,2.584-0.624,5.156-0.717,7.695c-0.064,1.277-0.179,2.525-0.206,3.813
		c-0.015,1.299-0.032,2.592-0.048,3.882c-0.006,0.621-0.031,1.345-0.022,1.877l0.063,1.892c0.042,1.259,0.084,2.515,0.125,3.765
		c0.101,1.247,0.2,2.491,0.302,3.729c0.105,1.238,0.182,2.476,0.373,3.696c1.173,9.8,3.417,19.189,6.636,27.886
		c3.21,8.699,7.293,16.723,11.903,23.98c9.297,14.498,20.833,25.726,32.347,33.68c5.757,3.993,11.488,7.245,17.007,9.775
		c5.512,2.532,10.738,4.552,15.604,5.876c9.675,2.877,17.622,3.77,22.99,4.139c2.683,0.27,4.771,0.225,6.165,0.293
		c1.4,0.041,2.121,0.062,2.121,0.062h-0.01V244.503z"/>
</g>
</svg>
