<?xml version="1.0" encoding="utf-8"?>
<!-- Generator: Adobe Illustrator 16.0.0, SVG Export Plug-In . SVG Version: 6.00 Build 0)  -->
<!DOCTYPE svg PUBLIC "-//W3C//DTD SVG 1.1//EN" "http://www.w3.org/Graphics/SVG/1.1/DTD/svg11.dtd">
<svg version="1.1" id="Camada_1" xmlns="http://www.w3.org/2000/svg" xmlns:xlink="http://www.w3.org/1999/xlink" x="0px" y="0px"
	 width="250px" height="250px" viewBox="0 0 250 250" enable-background="new 0 0 250 250" xml:space="preserve">
<g>
	<path fill="none" stroke="#000000" stroke-width="5" stroke-miterlimit="10" d="M162.369,84.814L162.369,84.814l0.988,0.416
		l1.129,0.285l1.129,0.155l1.141,0.129l0,0l1.117-0.129l1-0.155l1.002-0.13l0.984-0.429l0.846-0.429l0.842-0.572l0.859-0.558
		l0.699-0.714l0.701-0.701l0.569-0.701l0.572-0.987l0.416-0.856l0.284-0.987l0.287-0.987l0.144-0.999l0.144-0.987l0,0l-0.144-1.13
		l-0.144-1l-0.287-0.986l-0.284-1l-0.416-0.844l-0.572-0.844l-0.569-0.857l-0.701-0.702l-0.699-0.713l-0.859-0.559l-0.842-0.571
		l-0.846-0.415l-0.984-0.286l-1.002-0.285l-1-0.144L166.756,65l0,0l-0.998,0.143l-0.988,0.144l-1,0.285l-0.983,0.286l-0.986,0.415
		l-0.858,0.571l-0.701,0.559l-0.699,0.713l-0.715,0.702l-0.559,0.857l-0.572,0.844l-0.428,0.844l-0.429,1l-0.131,0.986l-0.156,1
		l-0.129,1.13l0,0l0.129,1.545l0.431,1.557l0.569,1.429l0.716,1.272"/>
	<path fill="none" stroke="#000000" stroke-width="5" stroke-miterlimit="10" d="M162.369,84.814L162.369,84.814l0.988,0.416
		l1.129,0.285l1.129,0.155l1.141,0.129l0,0l1.117-0.129l1-0.155l1.002-0.13l0.984-0.429l0.846-0.429l0.842-0.572l0.859-0.558
		l0.699-0.714l0.701-0.701l0.569-0.701l0.572-0.987l0.416-0.856l0.284-0.987l0.287-0.987l0.144-0.999l0.144-0.987l0,0l-0.144-1.13
		l-0.144-1l-0.287-0.986l-0.284-1l-0.416-0.844l-0.572-0.844l-0.569-0.857l-0.701-0.702l-0.699-0.713l-0.859-0.559l-0.842-0.571
		l-0.846-0.415l-0.984-0.286l-1.002-0.285l-1-0.144L166.756,65l0,0l-0.998,0.143l-0.988,0.144l-1,0.285l-0.983,0.286l-0.986,0.415
		l-0.858,0.571l-0.701,0.559l-0.699,0.713l-0.715,0.702l-0.559,0.857l-0.572,0.844l-0.428,0.844l-0.429,1l-0.131,0.986l-0.156,1
		l-0.129,1.13l0,0l0.129,1.545l0.431,1.557l0.569,1.429l0.716,1.272"/>
	<path fill="none" stroke="#000000" stroke-width="5" stroke-miterlimit="10" d="M101.784,87.646L101.784,87.646l0.715-0.987
		l0.558-0.987l0.429-1.143l0.286-1.273l0,0l0.142-0.987v-1.141V80.14l-0.285-0.987l-0.286-0.987l-0.286-0.856l-0.415-0.988
		l-0.572-0.842l-0.572-0.715l-0.701-0.701l-0.701-0.715l-0.858-0.559l-0.856-0.571l-0.987-0.428l-0.986-0.272l-0.988-0.286l0,0
		l-0.987-0.142h-1.143h-0.986l-0.987,0.142l-0.987,0.286l-0.858,0.416l-0.987,0.428l-0.844,0.558l-0.715,0.572l-0.701,0.713
		l-0.715,0.702l-0.558,0.843l-0.57,0.858l-0.43,0.856l-0.273,0.987l-0.285,1.129l0,0l-0.142,0.987v0.999v1.116l0.142,0.987
		l0.285,1.001l0.417,0.843l0.428,0.987l0.559,0.713l0.57,0.843l0.701,0.715l0.715,0.714l0.844,0.558l0.856,0.572l0.844,0.427
		l1.001,0.273l1.129,0.285l0,0l1.414,0.143h1.56l1.403-0.285l1.427-0.416"/>
	<path fill="none" stroke="#000000" stroke-width="5" stroke-miterlimit="10" d="M101.784,87.646L101.784,87.646l0.715-0.987
		l0.558-0.987l0.429-1.143l0.286-1.273l0,0l0.142-0.987v-1.141V80.14l-0.285-0.987l-0.286-0.987l-0.286-0.856l-0.415-0.988
		l-0.572-0.842l-0.572-0.715l-0.701-0.701l-0.701-0.715l-0.858-0.559l-0.856-0.571l-0.987-0.428l-0.986-0.272l-0.988-0.286l0,0
		l-0.987-0.142h-1.143h-0.986l-0.987,0.142l-0.987,0.286l-0.858,0.416l-0.987,0.428l-0.844,0.558l-0.715,0.572l-0.701,0.713
		l-0.715,0.702l-0.558,0.843l-0.57,0.858l-0.43,0.856l-0.273,0.987l-0.285,1.129l0,0l-0.142,0.987v0.999v1.116l0.142,0.987
		l0.285,1.001l0.417,0.843l0.428,0.987l0.559,0.713l0.57,0.843l0.701,0.715l0.715,0.714l0.844,0.558l0.856,0.572l0.844,0.427
		l1.001,0.273l1.129,0.285l0,0l1.414,0.143h1.56l1.403-0.285l1.427-0.416"/>
	<path fill="none" stroke="#000000" stroke-width="5" stroke-miterlimit="10" d="M81.126,139.011L81.126,139.011l-0.715-0.7
		l-0.701-0.701l-0.701-0.715l-1-0.561l0,0l-0.845-0.439l-0.986-0.416l-0.988-0.283l-0.999-0.133l-1-0.154l-0.987,0.154h-0.987
		l-0.987,0.273l-0.987,0.286l-0.857,0.429l-0.844,0.415l-0.844,0.571l-0.855,0.701l-0.703,0.714l-0.713,0.7l-0.559,1l0,0
		l-0.429,0.844l-0.428,1.001l-0.286,0.985l-0.131,0.987l-0.155,0.986v0.985l0.155,1.002l0.274,0.984l0.285,1.002l0.429,0.842
		L64,150.773l0.571,0.701l0.571,0.846l0.845,0.713l0.714,0.701l0.986,0.572l0,0l0.857,0.414l0.988,0.44l0.987,0.272l0.987,0.144
		l0.986,0.13h0.987l1-0.13l0.987-0.285l1-0.286l0.844-0.285l0.845-0.559l0.856-0.559l0.844-0.571l0.715-0.714l0.701-0.846
		l0.572-0.854l0,0l0.701-1.688l0.429-1.56l0.286-1.7l-0.144-1.699"/>
	<path fill="none" stroke="#000000" stroke-width="5" stroke-miterlimit="10" d="M81.126,139.011L81.126,139.011l-0.715-0.7
		l-0.701-0.701l-0.701-0.715l-1-0.561l0,0l-0.845-0.439l-0.986-0.416l-0.988-0.283l-0.999-0.133l-1-0.154l-0.987,0.154h-0.987
		l-0.987,0.273l-0.987,0.286l-0.857,0.429l-0.844,0.415l-0.844,0.571l-0.855,0.701l-0.703,0.714l-0.713,0.7l-0.559,1l0,0
		l-0.429,0.844l-0.428,1.001l-0.286,0.985l-0.131,0.987l-0.155,0.986v0.985l0.155,1.002l0.274,0.984l0.285,1.002l0.429,0.842
		L64,150.773l0.571,0.701l0.571,0.846l0.845,0.713l0.714,0.701l0.986,0.572l0,0l0.857,0.414l0.988,0.44l0.987,0.272l0.987,0.144
		l0.986,0.13h0.987l1-0.13l0.987-0.285l1-0.286l0.844-0.285l0.845-0.559l0.856-0.559l0.844-0.571l0.715-0.714l0.701-0.846
		l0.572-0.854l0,0l0.701-1.688l0.429-1.56l0.286-1.7l-0.144-1.699"/>
	<path fill="none" stroke="#000000" stroke-width="5" stroke-miterlimit="10" d="M121.598,164.484L121.598,164.484l-1.115,0.287
		l-1.145,0.57l-1.129,0.572l-1.001,0.7l0,0l-0.83,0.7l-0.57,0.857l-0.714,0.844l-0.429,0.844l-0.417,0.855l-0.284,0.989
		l-0.287,0.999l-0.142,0.986v1v0.984l0.142,0.987l0.287,0.987l0.284,0.855l0.417,0.988l0.57,0.855l0.701,0.832l0,0l0.714,0.855
		l0.715,0.699l0.844,0.572l0.844,0.416l0.986,0.441l0.856,0.415l0.988,0.144l0.986,0.144l0.987,0.129l0.999-0.129l1-0.144
		l0.986-0.272l0.986-0.285l0.857-0.442l0.985-0.545l0.845-0.57l0,0l0.715-0.7l0.701-0.856l0.569-0.857l0.562-0.844l0.428-0.846
		l0.283-0.986l0.287-0.998l0.131-0.987v-1v-0.986l-0.131-0.987l-0.287-0.985l-0.426-1l-0.431-0.845l-0.416-0.855l-0.713-0.846l0,0
		l-0.988-1.131l-1.271-0.983l-1.285-0.715l-1.271-0.429"/>
	<path fill="none" stroke="#000000" stroke-width="5" stroke-miterlimit="10" d="M121.598,164.484L121.598,164.484l-1.115,0.287
		l-1.145,0.57l-1.129,0.572l-1.001,0.7l0,0l-0.83,0.7l-0.57,0.857l-0.714,0.844l-0.429,0.844l-0.417,0.855l-0.284,0.989
		l-0.287,0.999l-0.142,0.986v1v0.984l0.142,0.987l0.287,0.987l0.284,0.855l0.417,0.988l0.57,0.855l0.701,0.832l0,0l0.714,0.855
		l0.715,0.699l0.844,0.572l0.844,0.416l0.986,0.441l0.856,0.415l0.988,0.144l0.986,0.144l0.987,0.129l0.999-0.129l1-0.144
		l0.986-0.272l0.986-0.285l0.857-0.442l0.985-0.545l0.845-0.57l0,0l0.715-0.7l0.701-0.856l0.569-0.857l0.562-0.844l0.428-0.846
		l0.283-0.986l0.287-0.998l0.131-0.987v-1v-0.986l-0.131-0.987l-0.287-0.985l-0.426-1l-0.431-0.845l-0.416-0.855l-0.713-0.846l0,0
		l-0.988-1.131l-1.271-0.983l-1.285-0.715l-1.271-0.429"/>
	<path fill="none" stroke="#000000" stroke-width="5" stroke-miterlimit="10" d="M166.887,131.246L166.887,131.246l0.156,1.117
		l0.416,1.143l0,0l0.414,0.829l0.443,1.001l0.557,0.844l0.715,0.715l0.701,0.715l0.701,0.701l0.857,0.57l0.856,0.416l0.983,0.428
		l0.988,0.287l0.988,0.141l0.984,0.131h0.988l1-0.131l0.985-0.141l1-0.43l0,0l0.985-0.285l0.988-0.572l0.855-0.558l0.701-0.715
		l0.701-0.7l0.715-0.701l0.428-0.855l0.572-0.859l0.271-0.986l0.285-0.984l0.287-0.846l0.144-1.129v-0.986l-0.144-0.999
		l-0.146-0.988l-0.428-0.999l0,0l-0.428-0.987l-0.41-0.99l-0.572-0.855l-0.701-0.701l-0.713-0.702l-0.715-0.714l-0.844-0.43
		l-0.844-0.558l-0.986-0.285l-1-0.287l-0.986-0.284h-1l-0.988-0.143l-0.983,0.143l-0.987,0.284l-0.988,0.287l0,0l-1.144,0.429
		l-0.983,0.559l-0.857,0.571l-0.83,0.714l-0.715,0.843l-0.559,0.846l-0.572,0.855l-0.43,0.987"/>
	<path fill="none" stroke="#000000" stroke-width="5" stroke-miterlimit="10" d="M166.887,131.246L166.887,131.246l0.156,1.117
		l0.416,1.143l0,0l0.414,0.829l0.443,1.001l0.557,0.844l0.715,0.715l0.701,0.715l0.701,0.701l0.857,0.57l0.856,0.416l0.983,0.428
		l0.988,0.287l0.988,0.141l0.984,0.131h0.988l1-0.131l0.985-0.141l1-0.43l0,0l0.985-0.285l0.988-0.572l0.855-0.558l0.701-0.715
		l0.701-0.7l0.715-0.701l0.428-0.855l0.572-0.859l0.271-0.986l0.285-0.984l0.287-0.846l0.144-1.129v-0.986l-0.144-0.999
		l-0.146-0.988l-0.428-0.999l0,0l-0.428-0.987l-0.41-0.99l-0.572-0.855l-0.701-0.701l-0.713-0.702l-0.715-0.714l-0.844-0.43
		l-0.844-0.558l-0.986-0.285l-1-0.287l-0.986-0.284h-1l-0.988-0.143l-0.983,0.143l-0.987,0.284l-0.988,0.287l0,0l-1.144,0.429
		l-0.983,0.559l-0.857,0.571l-0.83,0.714l-0.715,0.843l-0.559,0.846l-0.572,0.855l-0.43,0.987"/>
	<path fill="none" stroke="#000000" stroke-width="5" stroke-miterlimit="10" d="M103.914,123.312L103.914,123.312l0.144-2.128
		l0.272-2.26l0.57-2.13l0.715-1.986l0.986-1.975l1.129-1.699l1.273-1.701l1.43-1.559l1.556-1.401l1.547-1.274l1.842-1.143
		l1.988-0.985l1.973-0.701l2.129-0.571l2.117-0.286l2.272-0.13l0,0l2.258,0.13l2.26,0.286l1.988,0.571l2.115,0.701l1.844,0.985
		l1.844,1.143l1.689,1.274l1.557,1.401l1.428,1.559l1.273,1.701l1.117,1.699l0.854,1.975l0.856,1.986l0.414,2.13l0.416,2.26v2.128
		l0,0v2.26l-0.416,2.271l-0.414,2.118l-0.856,1.985l-0.854,1.844l-1.117,1.831l-1.273,1.7l-1.428,1.559l-1.557,1.401l-1.689,1.271
		l-1.844,1.145l-1.844,0.846l-2.115,0.855l-1.988,0.43l-2.26,0.415l-2.258,0.143l0,0l-2.272-0.143l-2.117-0.415l-2.129-0.43
		l-1.973-0.855l-1.988-0.846l-1.842-1.145l-1.547-1.271l-1.556-1.401l-1.43-1.559l-1.273-1.7l-1.129-1.831l-0.986-1.844
		l-0.715-1.985l-0.57-2.118l-0.272-2.271L103.914,123.312L103.914,123.312z"/>
	<path fill="none" stroke="#000000" stroke-width="5" stroke-miterlimit="10" d="M103.914,123.312L103.914,123.312l0.144-2.128
		l0.272-2.26l0.57-2.13l0.715-1.986l0.986-1.975l1.129-1.699l1.273-1.701l1.43-1.559l1.556-1.401l1.547-1.274l1.842-1.143
		l1.988-0.985l1.973-0.701l2.129-0.571l2.117-0.286l2.272-0.13l0,0l2.258,0.13l2.26,0.286l1.988,0.571l2.115,0.701l1.844,0.985
		l1.844,1.143l1.689,1.274l1.557,1.401l1.428,1.559l1.273,1.701l1.117,1.699l0.854,1.975l0.856,1.986l0.414,2.13l0.416,2.26v2.128
		l0,0v2.26l-0.416,2.271l-0.414,2.118l-0.856,1.985l-0.854,1.844l-1.117,1.831l-1.273,1.7l-1.428,1.559l-1.557,1.401l-1.689,1.271
		l-1.844,1.145l-1.844,0.846l-2.115,0.855l-1.988,0.43l-2.26,0.415l-2.258,0.143l0,0l-2.272-0.143l-2.117-0.415l-2.129-0.43
		l-1.973-0.855l-1.988-0.846l-1.842-1.145l-1.547-1.271l-1.556-1.401l-1.43-1.559l-1.273-1.7l-1.129-1.831l-0.986-1.844
		l-0.715-1.985l-0.57-2.118l-0.272-2.271L103.914,123.312L103.914,123.312z"/>
	<path fill="none" stroke="#000000" stroke-width="5" stroke-miterlimit="10" d="M93.579,81.412l18.969,24.632"/>
	<path fill="none" stroke="#000000" stroke-width="5" stroke-miterlimit="10" d="M93.579,81.412l18.969,24.632"/>
	<path fill="none" stroke="#000000" stroke-width="5" stroke-miterlimit="10" d="M140.139,106.602l26.748-31.123"/>
	<path fill="none" stroke="#000000" stroke-width="5" stroke-miterlimit="10" d="M140.139,106.602l26.748-31.123"/>
	<path fill="none" stroke="#000000" stroke-width="5" stroke-miterlimit="10" d="M177.223,129.962l-29.578-3.819"/>
	<path fill="none" stroke="#000000" stroke-width="5" stroke-miterlimit="10" d="M177.223,129.962l-29.578-3.819"/>
	<path fill="none" stroke="#000000" stroke-width="5" stroke-miterlimit="10" d="M123.858,174.691l1.141-29.448"/>
	<path fill="none" stroke="#000000" stroke-width="5" stroke-miterlimit="10" d="M123.858,174.691l1.141-29.448"/>
	<path fill="none" stroke="#000000" stroke-width="5" stroke-miterlimit="10" d="M72.778,145.386l32.837-13.594"/>
	<path fill="none" stroke="#000000" stroke-width="5" stroke-miterlimit="10" d="M72.778,145.386l32.837-13.594"/>
</g>
<g>
	<path fill="#202020" d="M245.25,125.006c0,0-0.017,0.736-0.048,2.163c-0.061,1.427-0.001,3.541-0.256,6.306
		c-0.343,5.523-1.23,13.635-3.874,23.647c-2.693,9.956-7,21.954-14.792,34.21c-3.864,6.125-8.522,12.324-14.089,18.29
		c-5.574,5.943-11.988,11.75-19.42,16.806c-3.731,2.495-7.605,4.972-11.769,7.11c-1.039,0.537-2.083,1.076-3.132,1.619
		c-1.073,0.492-2.151,0.986-3.234,1.483c-2.146,1.042-4.408,1.867-6.654,2.785c-1.116,0.477-2.285,0.825-3.438,1.237
		c-1.157,0.395-2.314,0.812-3.493,1.173c-1.187,0.335-2.379,0.672-3.575,1.01l-1.798,0.507l-1.827,0.426
		c-1.221,0.279-2.446,0.56-3.677,0.842c-1.231,0.274-2.486,0.456-3.736,0.689c-2.495,0.494-5.04,0.784-7.601,1.081
		c-1.277,0.18-2.569,0.239-3.863,0.331c-1.294,0.085-2.592,0.169-3.895,0.254c-1.305,0.023-2.613,0.046-3.927,0.068l-1.971,0.034
		c-0.759-0.005-1.326-0.039-2-0.057c-1.298-0.05-2.6-0.1-3.905-0.15c-1.313-0.067-2.667-0.225-4.002-0.335
		c-2.697-0.186-5.338-0.63-8.013-0.998c-5.316-0.915-10.664-2.035-15.909-3.693c-2.652-0.73-5.228-1.74-7.844-2.649
		c-1.292-0.501-2.569-1.049-3.857-1.573l-1.93-0.798l-1.894-0.891c-20.273-9.37-38.511-24.696-51.439-44.154
		C11.434,172.378,3.889,148.862,3.631,125c0.063-3.024-0.021-5.883,0.234-8.913c0.113-1.492,0.137-3.005,0.327-4.481l0.501-4.445
		c0.846-5.901,1.981-11.773,3.658-17.497c1.723-5.702,3.739-11.319,6.253-16.702c2.53-5.37,5.339-10.603,8.585-15.539
		C36.111,37.615,54.733,22.141,75.323,12.93l1.922-0.88l1.958-0.786c1.306-0.517,2.601-1.057,3.91-1.549
		c2.65-0.896,5.26-1.882,7.947-2.578c5.314-1.597,10.719-2.651,16.083-3.497c2.696-0.333,5.37-0.742,8.054-0.889
		c1.34-0.092,2.674-0.23,4.008-0.281c1.334-0.033,2.666-0.066,3.992-0.099l0.994-0.021l0.497-0.01l0.248-0.005
		c0.069-0.004,0.291,0.004,0.312,0.005l1.938,0.058c1.29,0.038,2.576,0.076,3.858,0.114c1.318,0.102,2.632,0.203,3.942,0.304
		c1.31,0.109,2.625,0.187,3.898,0.382c2.564,0.336,5.116,0.636,7.616,1.147c1.252,0.242,2.509,0.432,3.742,0.714
		c1.231,0.29,2.459,0.578,3.682,0.866l1.828,0.438l1.8,0.519c1.197,0.346,2.39,0.69,3.577,1.033c1.179,0.37,2.336,0.793,3.494,1.193
		c1.152,0.418,2.322,0.772,3.439,1.255c9.063,3.524,17.384,7.991,24.776,13.109c7.42,5.088,13.838,10.897,19.405,16.855
		c5.563,5.976,10.209,12.189,14.076,18.315c7.79,12.263,12.099,24.265,14.785,34.227c2.641,10.014,3.517,18.136,3.852,23.651
		c0.251,2.758,0.189,4.885,0.248,6.313c0.029,1.429,0.045,2.167,0.045,2.167V125.006z M244.75,125c0,0-0.021-0.734-0.064-2.158
		c-0.07-1.421-0.027-3.539-0.303-6.282c-0.379-5.482-1.29-13.575-4.188-23.44c-1.337-4.959-3.373-10.286-5.923-15.905
		c-2.547-5.625-5.822-11.466-9.842-17.333c-8.015-11.729-19.327-23.479-33.934-32.912c-7.313-4.677-15.399-8.8-24.155-12.028
		c-8.753-3.231-18.198-5.466-28.041-6.566c-1.231-0.179-2.454-0.237-3.685-0.329c-1.231-0.085-2.467-0.172-3.706-0.258
		c-1.282-0.027-2.568-0.054-3.859-0.081l-1.938-0.041l-1.838,0.049c-1.27,0.033-2.543,0.066-3.821,0.099
		c-1.277,0.046-2.552,0.18-3.834,0.265c-2.569,0.135-5.126,0.528-7.706,0.84c-5.13,0.805-10.301,1.801-15.384,3.325
		c-2.568,0.668-5.068,1.6-7.617,2.418c-1.257,0.458-2.501,0.963-3.757,1.443l-1.882,0.731l-1.848,0.824
		c-9.913,4.302-19.361,10.131-27.948,17.225c-4.308,3.536-8.313,7.476-12.135,11.615c-3.807,4.162-7.238,8.685-10.485,13.358
		c-3.22,4.698-6.023,9.697-8.567,14.839c-2.529,5.156-4.579,10.553-6.354,16.046c-1.776,5.5-3.044,11.165-4.032,16.884l-0.612,4.313
		c-0.228,1.439-0.287,2.876-0.439,4.316c-0.331,2.836-0.337,5.877-0.482,8.739c0.002,5.824,0.288,11.657,1.065,17.437
		c0.837,5.765,1.953,11.501,3.601,17.088c1.697,5.565,3.675,11.048,6.143,16.299c2.498,5.231,5.28,10.317,8.479,15.112
		c6.391,9.588,14.125,18.174,22.846,25.336c8.708,7.178,18.361,12.948,28.417,17.201l1.876,0.813l1.91,0.72
		c1.274,0.473,2.535,0.97,3.81,1.42c2.583,0.805,5.117,1.714,7.72,2.348c5.15,1.462,10.379,2.392,15.558,3.127
		c2.601,0.277,5.19,0.635,7.747,0.731c1.286,0.066,2.542,0.182,3.839,0.21c1.307,0.016,2.609,0.032,3.908,0.048
		c0.625,0.007,1.354,0.032,1.889,0.023l1.905-0.064c1.268-0.042,2.531-0.085,3.79-0.127c1.256-0.103,2.508-0.205,3.755-0.308
		c1.246-0.108,2.492-0.185,3.721-0.38c9.866-1.196,19.319-3.484,28.074-6.766c8.758-3.274,16.836-7.438,24.143-12.139
		c14.595-9.481,25.898-21.244,33.906-32.986c4.02-5.871,7.294-11.715,9.841-17.343c2.549-5.621,4.583-10.951,5.917-15.912
		c2.895-9.867,3.794-17.97,4.166-23.444c0.271-2.737,0.226-4.866,0.295-6.288c0.041-1.427,0.062-2.163,0.062-2.163V125z"/>
</g>
</svg>
