<?xml version="1.0" encoding="utf-8"?>
<!-- Generator: Adobe Illustrator 16.0.0, SVG Export Plug-In . SVG Version: 6.00 Build 0)  -->
<!DOCTYPE svg PUBLIC "-//W3C//DTD SVG 1.1//EN" "http://www.w3.org/Graphics/SVG/1.1/DTD/svg11.dtd">
<svg version="1.1" id="Camada_2" xmlns="http://www.w3.org/2000/svg" xmlns:xlink="http://www.w3.org/1999/xlink" x="0px" y="0px"
	 width="250px" height="250px" viewBox="0 0 250 250" enable-background="new 0 0 250 250" xml:space="preserve">
<g>
	<path fill="#15470F" d="M191.136,92.112c-4.12,0-7.581,2.818-8.576,6.637h-23.25c-0.688-0.933-1.791-1.54-3.038-1.54
		c-2.089,0-3.781,1.698-3.781,3.792c0,2.094,1.692,3.792,3.781,3.792c1.247,0,2.35-0.607,3.038-1.541h23.25
		c0.995,3.819,4.457,6.637,8.576,6.637c4.896,0,8.864-3.979,8.864-8.888C200,96.092,196.031,92.112,191.136,92.112z
		 M191.136,105.267c-2.35,0-4.255-1.911-4.255-4.266c0-2.356,1.905-4.266,4.255-4.266s4.256,1.91,4.256,4.266
		C195.392,103.356,193.485,105.267,191.136,105.267z"/>
	<path fill="#15470F" d="M191.136,115.262c-4.12,0-7.581,2.818-8.576,6.637h-23.25c-0.688-0.933-1.791-1.54-3.038-1.54
		c-2.089,0-3.781,1.698-3.781,3.792s1.692,3.791,3.781,3.791c1.247,0,2.35-0.606,3.038-1.539h23.25
		c0.995,3.817,4.457,6.637,8.576,6.637c4.896,0,8.864-3.98,8.864-8.888C200,119.241,196.031,115.262,191.136,115.262z
		 M191.136,128.416c-2.35,0-4.255-1.911-4.255-4.267c0-2.356,1.905-4.266,4.255-4.266s4.256,1.909,4.256,4.266
		C195.392,126.505,193.485,128.416,191.136,128.416z"/>
	<path fill="#15470F" d="M188.742,158.545v-16.929v-0.728v-0.042c0-0.15-0.021-0.297-0.058-0.437
		c-0.198-0.822-0.888-1.432-1.712-1.432h-0.264h-0.688h-26.8c-0.693-0.864-1.756-1.42-2.95-1.42c-2.088,0-3.781,1.697-3.781,3.79
		c0,2.096,1.692,3.793,3.781,3.793c1.301,0,2.445-0.658,3.126-1.659h24.854v15.063c-3.545,1.027-6.146,4.42-6.146,8.449
		c0,4.845,3.757,8.771,8.392,8.771s8.392-3.927,8.392-8.771C194.888,162.965,192.287,159.572,188.742,158.545z M186.497,170.985
		c-2.198,0-3.98-1.786-3.98-3.989c0-2.205,1.782-3.991,3.98-3.991s3.98,1.786,3.98,3.991
		C190.478,169.199,188.695,170.985,186.497,170.985z"/>
	<path fill="#15470F" d="M50,101c0,4.909,3.969,8.888,8.864,8.888c4.12,0,7.582-2.818,8.576-6.637h23.25
		c0.689,0.935,1.792,1.542,3.038,1.542c2.089,0,3.783-1.698,3.783-3.792c0-2.095-1.693-3.792-3.783-3.792
		c-1.247,0-2.349,0.607-3.038,1.54H67.44c-0.994-3.818-4.456-6.636-8.576-6.636C53.969,92.112,50,96.091,50,101z M54.61,101.001
		c0-2.356,1.904-4.266,4.254-4.266s4.255,1.91,4.255,4.266c0,2.355-1.905,4.266-4.255,4.266S54.61,103.356,54.61,101.001z"/>
	<path fill="#15470F" d="M50,124.149c0,4.908,3.969,8.888,8.864,8.888c4.12,0,7.582-2.817,8.576-6.637h23.25
		c0.689,0.935,1.792,1.541,3.038,1.541c2.089,0,3.783-1.699,3.783-3.792c0-2.095-1.693-3.792-3.783-3.792
		c-1.247,0-2.349,0.606-3.038,1.54H67.44c-0.994-3.818-4.456-6.636-8.577-6.636C53.969,115.262,50,119.241,50,124.149z
		 M54.61,124.149c0-2.356,1.904-4.266,4.254-4.266s4.255,1.909,4.255,4.266c0,2.355-1.905,4.267-4.255,4.267
		S54.61,126.505,54.61,124.149z"/>
	<path fill="#15470F" d="M55.112,166.994c0,4.845,3.757,8.771,8.391,8.771c4.635,0,8.392-3.927,8.392-8.771
		c0-4.029-2.603-7.422-6.146-8.449v-15.063h24.855c0.681,1.001,1.826,1.659,3.125,1.659c2.088,0,3.782-1.697,3.782-3.793
		c0-2.093-1.694-3.79-3.782-3.79c-1.193,0-2.255,0.556-2.949,1.42H63.979h-0.688h-0.265c-0.823,0-1.513,0.609-1.71,1.432
		c-0.037,0.14-0.058,0.286-0.058,0.437v0.042v0.728v16.929C57.714,159.572,55.112,162.965,55.112,166.994z M59.524,166.996
		c0-2.205,1.781-3.991,3.979-3.991s3.98,1.786,3.98,3.991c0,2.203-1.782,3.989-3.98,3.989S59.524,169.199,59.524,166.996z"/>
	<path fill="#15470F" d="M116.426,83.506V66.773v-0.769v-0.098c0-0.977-0.791-1.77-1.77-1.77h-0.111h-0.842h-23.33
		c-0.995-3.818-4.458-6.637-8.577-6.637c-4.896,0-8.864,3.979-8.864,8.888c0,4.908,3.969,8.888,8.864,8.888
		c4.119,0,7.582-2.818,8.576-6.637h21.562v14.823c-0.947,0.689-1.565,1.805-1.565,3.069c0,2.094,1.692,3.792,3.781,3.792
		c2.088,0,3.782-1.699,3.782-3.792C117.933,85.293,117.339,84.199,116.426,83.506z M81.797,70.654c-2.35,0-4.255-1.91-4.255-4.266
		c0-2.356,1.905-4.266,4.255-4.266c2.148,0,3.92,1.599,4.208,3.673c-0.008,0.068-0.012,0.138-0.012,0.209v0.769
		c0,0.071,0.004,0.14,0.012,0.209C85.717,69.055,83.945,70.654,81.797,70.654z"/>
	<path fill="#15470F" d="M131.587,86.53c0,2.094,1.693,3.792,3.782,3.792s3.782-1.699,3.782-3.792c0-1.264-0.619-2.38-1.566-3.069
		V68.64h21.562c0.995,3.818,4.457,6.636,8.576,6.636c4.896,0,8.864-3.979,8.864-8.887c0-4.909-3.968-8.889-8.864-8.889
		c-4.119,0-7.581,2.819-8.576,6.637h-23.33h-0.841h-0.112c-0.977,0-1.77,0.792-1.77,1.77v0.098v0.769v16.733
		C132.18,84.199,131.587,85.293,131.587,86.53z M163.514,66.981c0.008-0.068,0.012-0.138,0.012-0.208v-0.769
		c0-0.071-0.004-0.141-0.012-0.209c0.289-2.075,2.06-3.673,4.209-3.673c2.35,0,4.255,1.911,4.255,4.266s-1.905,4.266-4.255,4.266
		C165.573,70.654,163.803,69.055,163.514,66.981z"/>
	<path fill="#15470F" d="M117.933,163.47c0-2.095-1.694-3.792-3.782-3.792s-3.782,1.697-3.782,3.792
		c0,1.263,0.618,2.379,1.566,3.067v14.823H90.374c-0.995-3.819-4.457-6.636-8.576-6.636c-4.896,0-8.864,3.978-8.864,8.887
		s3.968,8.888,8.864,8.888c4.119,0,7.582-2.818,8.576-6.636h23.331h0.842h0.111c0.978,0,1.769-0.793,1.769-1.77v-0.099v-0.769
		v-16.733C117.339,165.802,117.933,164.706,117.933,163.47z M86.005,183.018c-0.008,0.068-0.012,0.139-0.012,0.209v0.771
		c0,0.07,0.004,0.14,0.012,0.208c-0.289,2.075-2.06,3.673-4.208,3.673c-2.35,0-4.255-1.909-4.255-4.267
		c0-2.354,1.905-4.265,4.255-4.265C83.945,179.346,85.717,180.945,86.005,183.018z"/>
	<path fill="#15470F" d="M133.094,166.493v16.733v0.771v0.097c0,0.977,0.791,1.77,1.769,1.77h0.112h0.841h23.33
		c0.994,3.819,4.457,6.638,8.576,6.638c4.896,0,8.865-3.979,8.865-8.89c0-4.908-3.97-8.887-8.865-8.887
		c-4.12,0-7.582,2.818-8.576,6.636h-21.563v-14.823c0.948-0.688,1.567-1.805,1.567-3.067c0-2.095-1.693-3.792-3.783-3.792
		c-2.087,0-3.781,1.697-3.781,3.792C131.587,164.706,132.18,165.802,133.094,166.493z M167.723,179.346
		c2.35,0,4.255,1.911,4.255,4.266c0,2.357-1.905,4.267-4.255,4.267c-2.149,0-3.92-1.598-4.209-3.675
		c0.008-0.068,0.012-0.136,0.012-0.208v-0.769c0-0.07-0.004-0.141-0.012-0.209C163.803,180.945,165.573,179.346,167.723,179.346z"/>
	<path id="rect815_1_" fill="#15470F" d="M109.805,93.502h30.644c4.2,0,7.604,3.414,7.604,7.625v46.606
		c0,4.213-3.404,7.626-7.604,7.626h-30.644c-4.2,0-7.606-3.413-7.606-7.626v-46.606C102.2,96.916,105.605,93.502,109.805,93.502z"/>
</g>
<g>
	<path fill="#15470F" d="M124.706,245c0,0-0.723-0.018-2.121-0.048c-1.4-0.062-3.473-0.001-6.183-0.254
		c-5.417-0.341-13.371-1.222-23.189-3.849c-9.764-2.676-21.529-6.953-33.546-14.692c-6.006-3.839-12.086-8.466-17.936-13.994
		c-5.829-5.537-11.523-11.908-16.48-19.29c-2.446-3.706-4.875-7.555-6.972-11.689c-0.527-1.033-1.056-2.069-1.588-3.111
		c-0.483-1.065-0.968-2.137-1.455-3.211c-1.022-2.133-1.832-4.379-2.731-6.61c-0.468-1.108-0.81-2.271-1.214-3.414
		c-0.388-1.147-0.796-2.297-1.15-3.469c-0.328-1.181-0.658-2.363-0.99-3.554l-0.497-1.783l-0.418-1.814
		c-0.274-1.214-0.548-2.431-0.825-3.652c-0.269-1.224-0.448-2.471-0.677-3.711c-0.484-2.479-0.769-5.008-1.06-7.552
		c-0.177-1.267-0.235-2.551-0.326-3.837c-0.082-1.283-0.166-2.574-0.249-3.869C5.078,130.3,5.055,129,5.033,127.697L5,125.736
		c0.005-0.752,0.039-1.317,0.056-1.986c0.049-1.289,0.098-2.583,0.147-3.878c0.066-1.306,0.221-2.649,0.329-3.978
		c0.182-2.678,0.618-5.302,0.979-7.958c0.897-5.28,1.997-10.593,3.623-15.804c0.717-2.633,1.707-5.192,2.598-7.791
		c0.491-1.284,1.029-2.552,1.543-3.831l0.781-1.917l0.874-1.881c9.188-20.137,24.217-38.253,43.298-51.094
		C78.253,12.751,101.312,5.256,124.712,5c2.963,0.063,5.769-0.021,8.739,0.232c1.462,0.113,2.947,0.137,4.395,0.324l4.359,0.498
		c5.786,0.84,11.545,1.967,17.156,3.633c5.592,1.712,11.1,3.714,16.379,6.211c5.264,2.514,10.396,5.304,15.236,8.528
		c19.424,12.835,34.598,31.333,43.631,51.785l0.863,1.909l0.771,1.944c0.507,1.297,1.036,2.583,1.52,3.884
		c0.878,2.632,1.847,5.225,2.527,7.894c1.567,5.278,2.601,10.647,3.429,15.975c0.327,2.678,0.729,5.333,0.873,8
		c0.09,1.332,0.227,2.656,0.273,3.981c0.033,1.325,0.064,2.647,0.099,3.966l0.021,0.986l0.012,0.494l0.005,0.246
		c0.004,0.068-0.005,0.29-0.005,0.31l-0.057,1.925c-0.039,1.282-0.074,2.56-0.113,3.834c-0.1,1.31-0.198,2.613-0.297,3.916
		c-0.106,1.301-0.186,2.606-0.377,3.871c-0.328,2.547-0.623,5.081-1.123,7.564c-0.237,1.242-0.424,2.492-0.7,3.717
		c-0.283,1.223-0.567,2.441-0.849,3.657l-0.431,1.815l-0.509,1.789c-0.339,1.188-0.678,2.371-1.014,3.551
		c-0.361,1.172-0.777,2.32-1.168,3.472c-0.41,1.146-0.758,2.307-1.231,3.417c-3.455,9.002-7.835,17.266-12.854,24.609
		c-4.989,7.369-10.686,13.744-16.527,19.274c-5.859,5.524-11.952,10.14-17.959,13.981c-12.025,7.736-23.796,12.018-33.564,14.685
		c-9.82,2.623-17.783,3.494-23.191,3.827c-2.704,0.249-4.791,0.188-6.19,0.246c-1.403,0.027-2.125,0.045-2.125,0.045h-0.008V245z
		 M124.711,244.503c0,0,0.72-0.021,2.114-0.063c1.396-0.068,3.471-0.025,6.161-0.301c5.375-0.375,13.312-1.279,22.984-4.158
		c4.862-1.33,10.086-3.352,15.596-5.885c5.516-2.529,11.244-5.783,16.996-9.775c11.502-7.961,23.024-19.196,32.274-33.706
		c4.586-7.265,8.63-15.296,11.794-23.993c3.168-8.694,5.361-18.077,6.438-27.854c0.177-1.224,0.232-2.438,0.322-3.66
		c0.086-1.223,0.17-2.45,0.254-3.682c0.026-1.273,0.054-2.551,0.08-3.833l0.039-1.926l-0.049-1.826
		c-0.033-1.262-0.064-2.526-0.098-3.794c-0.045-1.268-0.178-2.535-0.26-3.808c-0.133-2.552-0.519-5.092-0.824-7.654
		c-0.789-5.096-1.768-10.232-3.26-15.281c-0.655-2.551-1.569-5.034-2.371-7.566c-0.449-1.248-0.944-2.484-1.416-3.731l-0.717-1.87
		l-0.809-1.835c-4.219-9.847-9.936-19.23-16.891-27.761c-3.469-4.279-7.334-8.257-11.391-12.054
		c-4.082-3.781-8.518-7.189-13.1-10.415c-4.607-3.199-9.51-5.983-14.553-8.51c-5.055-2.512-10.35-4.548-15.734-6.312
		c-5.395-1.764-10.948-3.023-16.559-4.005l-4.228-0.611c-1.411-0.227-2.819-0.285-4.231-0.436c-2.78-0.329-5.764-0.335-8.567-0.479
		c-5.711,0.002-11.432,0.286-17.099,1.058c-5.653,0.831-11.277,1.94-16.757,3.577c-5.457,1.686-10.833,3.65-15.983,6.102
		c-5.129,2.481-10.117,5.246-14.819,8.422c-9.402,6.349-17.821,14.03-24.846,22.692c-7.038,8.65-12.697,18.237-16.868,28.227
		l-0.797,1.863l-0.706,1.897c-0.464,1.266-0.95,2.518-1.392,3.785c-0.79,2.564-1.681,5.082-2.302,7.668
		c-1.435,5.116-2.347,10.312-3.066,15.453c-0.272,2.584-0.623,5.156-0.717,7.695c-0.066,1.277-0.179,2.523-0.207,3.813
		c-0.015,1.299-0.031,2.592-0.047,3.883c-0.007,0.621-0.031,1.344-0.022,1.875l0.063,1.894c0.041,1.259,0.082,2.515,0.125,3.767
		c0.101,1.245,0.201,2.489,0.301,3.729c0.107,1.238,0.183,2.476,0.373,3.695c1.174,9.801,3.417,19.189,6.635,27.887
		c3.211,8.699,7.294,16.723,11.904,23.98c9.297,14.497,20.833,25.726,32.346,33.68c5.757,3.992,11.488,7.246,17.006,9.772
		c5.513,2.534,10.74,4.554,15.604,5.878c9.677,2.877,17.622,3.771,22.989,4.139c2.684,0.271,4.772,0.226,6.167,0.293
		c1.399,0.041,2.12,0.063,2.12,0.063h-0.006v-0.001H124.711z"/>
</g>
</svg>
