<svg version="1.1"  xmlns="http://www.w3.org/2000/svg" viewBox="0 0 210 210" enable-background="new 0 0 210 210" xml:space="preserve">
<path fill="#1DA1F2" d="M183.75,0H26.25C11.773,0,0,11.773,0,26.25v157.5C0,198.227,11.773,210,26.25,210h157.5
	c14.477,0,26.25-11.773,26.25-26.25V26.25C210,11.773,198.227,0,183.75,0z"/>
<path fill="#FFFFFF" d="M76.617,167.172c57.739,0,89.313-47.835,89.313-89.314c0-1.358-0.028-2.711-0.089-4.058
	c6.129-4.431,11.456-9.96,15.658-16.255c-5.624,2.5-11.678,4.183-18.026,4.942c6.48-3.887,11.457-10.034,13.803-17.362
	c-6.064,3.595-12.781,6.208-19.933,7.619c-5.728-6.102-13.884-9.917-22.914-9.917c-17.334,0-31.392,14.058-31.392,31.386
	c0,2.464,0.275,4.859,0.813,7.158c-26.09-1.313-49.224-13.804-64.705-32.798c-2.695,4.639-4.25,10.028-4.25,15.778
	c0,10.89,5.542,20.505,13.97,26.129c-5.15-0.159-9.988-1.572-14.217-3.926c-0.005,0.132-0.005,0.26-0.005,0.4
	c0,15.203,10.819,27.896,25.185,30.772c-2.639,0.718-5.414,1.104-8.277,1.104c-2.02,0-3.987-0.199-5.9-0.566
	c3.996,12.473,15.585,21.548,29.324,21.803c-10.743,8.421-24.278,13.437-38.987,13.437c-2.531,0-5.031-0.145-7.488-0.435
	C42.392,161.976,58.89,167.173,76.617,167.172"/>
</svg>
