<?xml version="1.0" encoding="utf-8"?>
<!-- Generator: Adobe Illustrator 16.0.0, SVG Export Plug-In . SVG Version: 6.00 Build 0)  -->
<!DOCTYPE svg PUBLIC "-//W3C//DTD SVG 1.1//EN" "http://www.w3.org/Graphics/SVG/1.1/DTD/svg11.dtd">
<svg version="1.1" id="Camada_1" xmlns="http://www.w3.org/2000/svg" xmlns:xlink="http://www.w3.org/1999/xlink" x="0px" y="0px"
	 width="389px" height="170px" viewBox="0 0 389 170" enable-background="new 0 0 389 170" xml:space="preserve">
<rect x="-227" y="-145.5" display="none" stroke="#FFFFFF" stroke-miterlimit="10" width="918" height="447"/>
<rect display="none" fill="#66BB6A" width="389" height="169.5"/>
<g>
	<g enable-background="new    ">
		<path fill="#FFFFFF" d="M98.241,98.468V27.193h10.877v10.806c2.775-5.056,5.337-8.39,7.688-10c2.35-1.611,4.935-2.417,7.754-2.417
			c4.074,0,8.214,1.298,12.422,3.893l-4.164,11.208c-2.954-1.745-5.908-2.617-8.862-2.617c-2.641,0-5.013,0.794-7.117,2.382
			c-2.104,1.589-3.604,3.792-4.499,6.611c-1.343,4.294-2.014,8.993-2.014,14.093v37.315L98.241,98.468L98.241,98.468z"/>
		<path fill="#FFFFFF" d="M190.896,98.468v-10.47c-5.551,8.054-13.092,12.081-22.626,12.081c-4.208,0-8.135-0.806-11.783-2.416
			c-3.648-1.611-6.356-3.636-8.125-6.074c-1.768-2.438-3.01-5.425-3.726-8.96c-0.493-2.372-0.738-6.13-0.738-11.275V27.193h12.085
			v39.53c0,6.31,0.246,10.561,0.738,12.751c0.761,3.176,2.372,5.672,4.834,7.483c2.462,1.812,5.506,2.718,9.131,2.718
			s7.027-0.928,10.206-2.785c3.178-1.855,5.427-4.385,6.748-7.584c1.32-3.199,1.981-7.841,1.981-13.926V27.193h12.084v71.275
			H190.896z"/>
		<path fill="#FFFFFF" d="M220.706,13.972V0.079h12.085v13.893H220.706z M220.706,98.468V27.193h12.085v71.275H220.706z"/>
		<path fill="#FFFFFF" d="M297.448,98.468v-8.993c-4.521,7.068-11.167,10.604-19.941,10.604c-5.685,0-10.909-1.568-15.677-4.698
			c-4.768-3.132-8.46-7.505-11.079-13.121c-2.619-5.613-3.928-12.069-3.928-19.362c0-7.114,1.186-13.568,3.559-19.362
			s5.931-10.235,10.677-13.322c4.743-3.087,10.049-4.631,15.912-4.631c4.297,0,8.123,0.906,11.48,2.719s6.087,4.172,8.191,7.081
			V0.079h12.019v98.389H297.448z M259.244,62.896c0,9.129,1.926,15.952,5.773,20.471c3.851,4.519,8.394,6.777,13.629,6.777
			c5.282,0,9.771-2.158,13.463-6.478c3.69-4.315,5.537-10.906,5.537-19.766c0-9.752-1.879-16.912-5.641-21.476
			c-3.759-4.564-8.392-6.846-13.896-6.846c-5.371,0-9.858,2.192-13.461,6.577C261.047,46.544,259.244,53.457,259.244,62.896z"/>
		<path fill="#FFFFFF" d="M374.189,89.676c-4.477,3.803-8.783,6.488-12.924,8.055c-4.143,1.565-8.584,2.35-13.328,2.35
			c-7.832,0-13.854-1.913-18.063-5.738c-4.207-3.824-6.313-8.714-6.313-14.665c0-3.489,0.795-6.678,2.385-9.564
			c1.59-2.885,3.672-5.2,6.242-6.945c2.574-1.746,5.475-3.064,8.694-3.96c2.372-0.626,5.954-1.229,10.744-1.812
			c9.757-1.164,16.94-2.551,21.552-4.162c0.045-1.655,0.066-2.707,0.066-3.153c0-4.922-1.141-8.39-3.424-10.403
			c-3.09-2.729-7.676-4.094-13.764-4.094c-5.687,0-9.883,0.996-12.592,2.986c-2.707,1.991-4.711,5.514-6.008,10.57l-11.816-1.611
			c1.072-5.056,2.842-9.138,5.305-12.248c2.462-3.11,6.021-5.503,10.675-7.181c4.655-1.678,10.05-2.517,16.182-2.517
			c6.089,0,11.034,0.716,14.839,2.147c3.807,1.432,6.604,3.233,8.395,5.403c1.789,2.17,3.043,4.91,3.759,8.221
			c0.403,2.059,0.604,5.772,0.604,11.141V68.6c0,11.23,0.26,18.333,0.771,21.31c0.516,2.976,1.533,5.826,3.057,8.557h-12.623
			C375.354,95.962,374.549,93.032,374.189,89.676z M373.184,62.695c-4.387,1.791-10.967,3.312-19.74,4.564
			c-4.969,0.717-8.479,1.521-10.541,2.417c-2.06,0.896-3.646,2.203-4.767,3.927c-1.118,1.723-1.68,3.635-1.68,5.737
			c0,3.223,1.221,5.906,3.661,8.055c2.439,2.146,6.008,3.223,10.708,3.223c4.655,0,8.796-1.018,12.421-3.055
			c3.626-2.035,6.289-4.82,7.99-8.355c1.298-2.729,1.945-6.756,1.945-12.081v-4.431H373.184z"/>
	</g>
	<g>
		<path id="path1977_10_" fill="#FFFFFF" d="M0.229,50.948V1.816l17.042,0.076c18.385,0.083,19.242,0.122,25.002,1.101
			c11.234,1.91,19.362,5.902,26.19,12.863c7.688,7.839,11.933,17.632,12.891,29.743c0.264,3.335,0.115,10.531-0.272,13.084
			c-0.917,6.063-2.393,10.795-4.952,15.883c-3.732,7.418-9.053,13.458-15.437,17.519c-4.729,3.009-11.104,5.449-17.062,6.526
			c-6.083,1.103-9.518,1.272-27.483,1.378l-15.92,0.09L0.229,50.948L0.229,50.948z M17.833,60.27
			c-3.706,3.082-12.92,15.548-3.9,30.421c0.796,1.313,23.276,6.684,38.729-2.838c3.479-2.143,7.815-6.814,10.085-10.426
			c18.586-30.464-7.177-63.035-7.196-62.992C43.555,43.146,22.328,56.529,17.833,60.27z"/>
		<path id="path4132_10_" fill="#FFFFFF" d="M14.832,90.189c-1.018-0.205-1.328-6.713,6.067-13.799
			c4.063-3.896,8.733-7.077,14.665-10.586c1.38-0.813,2.721-1.767,4.019-2.851c3.409-2.843,6.181-6.306,8.347-9.694l0,0
			c6.731-10.655,6.427-20.812,7.893-20.955c0.732-0.071,5.308,10.042-2.283,24.315l0,0c-2.183,4.155-5.316,8.378-9.528,11.872
			c-1.599,1.322-3.281,2.482-5.031,3.474c-6.297,3.533-10.231,5.537-14.551,8.738C17.92,85.527,15.927,90.411,14.832,90.189
			L14.832,90.189z"/>
		<path fill="#FFFFFF" d="M12.737,86.787"/>
	</g>
</g>
<g>
	<path fill="#FFFFFF" d="M89.588,124.695H75.704v34.266h-5.167v-34.266H56.652v-4.594h32.937V124.695z"/>
	<path fill="#FFFFFF" d="M113.077,144.895H91.598c0,1.792,0.271,3.355,0.809,4.686c0.54,1.328,1.279,2.422,2.219,3.274
		c0.904,0.835,1.979,1.461,3.223,1.879c1.244,0.421,2.615,0.626,4.111,0.626c1.983,0,3.98-0.395,5.989-1.186
		c2.009-0.792,3.44-1.572,4.294-2.338h0.261v5.354c-1.652,0.695-3.34,1.275-5.063,1.748c-1.723,0.471-3.532,0.705-5.428,0.705
		c-4.837,0-8.613-1.311-11.327-3.93c-2.713-2.618-4.07-6.338-4.07-11.158c0-4.767,1.301-8.551,3.901-11.35
		c2.602-2.801,6.025-4.201,10.27-4.201c3.932,0,6.963,1.148,9.095,3.445c2.133,2.297,3.196,5.559,3.196,9.786L113.077,144.895
		L113.077,144.895z M108.3,141.137c-0.018-2.572-0.665-4.567-1.944-5.974c-1.28-1.409-3.224-2.117-5.833-2.117
		c-2.628,0-4.72,0.774-6.277,2.323s-2.44,3.471-2.648,5.768H108.3z"/>
	<path fill="#FFFFFF" d="M142.071,157.135c-1.636,0.782-3.188,1.392-4.659,1.826c-1.471,0.432-3.031,0.652-4.684,0.652
		c-2.105,0-4.037-0.311-5.794-0.928c-1.756-0.617-3.262-1.551-4.515-2.805c-1.269-1.255-2.253-2.836-2.948-4.749
		c-0.694-1.914-1.043-4.149-1.043-6.71c0-4.768,1.309-8.505,3.928-11.223c2.619-2.713,6.077-4.07,10.373-4.07
		c1.671,0,3.31,0.234,4.919,0.704c1.609,0.473,3.084,1.044,4.423,1.723v5.458h-0.261c-1.497-1.166-3.041-2.065-4.633-2.691
		c-1.592-0.627-3.145-0.939-4.659-0.939c-2.783,0-4.979,0.937-6.589,2.807s-2.414,4.613-2.414,8.232
		c0,3.515,0.788,6.217,2.362,8.104c1.575,1.888,3.789,2.83,6.643,2.83c0.991,0,2.001-0.13,3.027-0.392
		c1.025-0.261,1.949-0.6,2.766-1.018c0.713-0.365,1.384-0.754,2.011-1.16c0.626-0.408,1.122-0.762,1.487-1.059h0.262v5.406H142.071z
		"/>
	<path fill="#FFFFFF" d="M172.735,158.961h-4.906v-16.598c0-1.34-0.079-2.599-0.235-3.773c-0.155-1.174-0.443-2.09-0.861-2.751
		c-0.435-0.731-1.061-1.273-1.879-1.633c-0.818-0.356-1.88-0.534-3.185-0.534c-1.34,0-2.741,0.331-4.201,0.992
		c-1.462,0.661-2.863,1.505-4.202,2.531v21.766h-4.907v-29.15h4.907v3.235c1.53-1.267,3.114-2.259,4.749-2.975
		c1.635-0.714,3.313-1.07,5.038-1.07c3.148,0,5.55,0.948,7.203,2.845s2.479,4.628,2.479,8.194V158.961z"/>
	<path fill="#FFFFFF" d="M207.027,144.398c0,4.75-1.217,8.499-3.652,11.248c-2.438,2.749-5.699,4.123-9.788,4.123
		c-4.123,0-7.398-1.374-9.825-4.123c-2.429-2.749-3.641-6.498-3.641-11.248s1.212-8.505,3.641-11.26
		c2.427-2.758,5.702-4.138,9.825-4.138c4.088,0,7.35,1.38,9.788,4.138C205.811,135.894,207.027,139.648,207.027,144.398z
		 M201.965,144.398c0-3.775-0.74-6.579-2.219-8.415c-1.479-1.835-3.531-2.755-6.157-2.755c-2.663,0-4.729,0.92-6.199,2.755
		c-1.47,1.836-2.205,4.64-2.205,8.415c0,3.654,0.74,6.426,2.219,8.313s3.541,2.831,6.186,2.831c2.61,0,4.659-0.935,6.145-2.805
		C201.223,150.865,201.965,148.087,201.965,144.398z"/>
	<path fill="#FFFFFF" d="M219.58,158.961h-4.906v-40.607h4.906V158.961z"/>
	<path fill="#FFFFFF" d="M254.133,144.398c0,4.75-1.215,8.499-3.652,11.248c-2.436,2.749-5.699,4.123-9.787,4.123
		c-4.123,0-7.396-1.374-9.824-4.123s-3.643-6.498-3.643-11.248s1.215-8.505,3.643-11.26c2.428-2.758,5.701-4.138,9.824-4.138
		c4.088,0,7.352,1.38,9.787,4.138C252.918,135.894,254.133,139.648,254.133,144.398z M249.07,144.398
		c0-3.775-0.738-6.579-2.219-8.415c-1.479-1.835-3.531-2.755-6.158-2.755c-2.662,0-4.729,0.92-6.197,2.755
		c-1.471,1.836-2.205,4.64-2.205,8.415c0,3.654,0.738,6.426,2.217,8.313s3.541,2.831,6.186,2.831c2.609,0,4.66-0.935,6.148-2.805
		C248.328,150.865,249.07,148.087,249.07,144.398z"/>
	<path fill="#FFFFFF" d="M285.373,155.646c0,4.941-1.123,8.568-3.367,10.883S276.309,170,271.645,170
		c-1.547,0-3.059-0.107-4.529-0.324c-1.469-0.221-2.918-0.527-4.344-0.928v-5.012h0.262c0.799,0.314,2.07,0.702,3.809,1.16
		c1.738,0.461,3.48,0.693,5.219,0.693c1.672,0,3.055-0.2,4.152-0.6c1.094-0.4,1.947-0.957,2.557-1.671
		c0.609-0.679,1.045-1.496,1.305-2.453c0.262-0.954,0.393-2.026,0.393-3.21v-2.662c-1.479,1.184-2.893,2.067-4.24,2.65
		c-1.348,0.58-3.066,0.873-5.156,0.873c-3.479,0-6.24-1.256-8.283-3.77c-2.047-2.514-3.066-6.061-3.066-10.637
		c0-2.506,0.352-4.666,1.057-6.483c0.705-1.818,1.666-3.388,2.883-4.712c1.131-1.236,2.506-2.195,4.123-2.883
		c1.615-0.688,3.227-1.029,4.828-1.029c1.688,0,3.102,0.168,4.238,0.508c1.141,0.342,2.346,0.857,3.617,1.554l0.313-1.253h4.594
		V155.646L285.373,155.646z M280.467,150.949v-15.894c-1.305-0.592-2.518-1.013-3.641-1.267c-1.123-0.253-2.24-0.377-3.354-0.377
		c-2.697,0-4.82,0.904-6.369,2.713c-1.547,1.811-2.322,4.438-2.322,7.883c0,3.27,0.576,5.75,1.723,7.438
		c1.148,1.688,3.055,2.531,5.717,2.531c1.428,0,2.857-0.275,4.293-0.824C277.949,152.607,279.266,151.871,280.467,150.949z"/>
	<path fill="#FFFFFF" d="M300.301,124.93h-5.533v-5.089h5.533V124.93z M299.986,158.961h-4.906v-29.15h4.906V158.961z"/>
	<path fill="#FFFFFF" d="M332.348,158.961h-4.879v-3.105c-0.436,0.296-1.021,0.711-1.764,1.238c-0.74,0.53-1.455,0.954-2.152,1.268
		c-0.816,0.399-1.758,0.736-2.818,1.006c-1.059,0.27-2.305,0.402-3.732,0.402c-2.627,0-4.855-0.869-6.68-2.609
		c-1.828-1.74-2.74-3.958-2.74-6.654c0-2.21,0.473-3.996,1.42-5.361c0.949-1.366,2.303-2.442,4.059-3.225
		c1.773-0.783,3.906-1.314,6.395-1.593c2.488-0.275,5.16-0.487,8.012-0.626v-0.757c0-1.114-0.195-2.036-0.588-2.767
		s-0.953-1.305-1.684-1.723c-0.697-0.4-1.531-0.67-2.506-0.809c-0.977-0.139-1.992-0.209-3.055-0.209
		c-1.287,0-2.723,0.168-4.305,0.511c-1.584,0.339-3.219,0.829-4.906,1.473h-0.264v-4.984c0.959-0.261,2.342-0.548,4.15-0.861
		c1.811-0.313,3.594-0.467,5.352-0.467c2.053,0,3.84,0.168,5.361,0.507c1.521,0.34,2.842,0.92,3.955,1.737
		c1.096,0.8,1.932,1.836,2.506,3.106c0.574,1.27,0.861,2.844,0.861,4.723v19.779H332.348z M327.469,151.784v-8.116
		c-1.496,0.087-3.258,0.217-5.287,0.392c-2.027,0.174-3.631,0.426-4.813,0.757c-1.41,0.4-2.551,1.021-3.42,1.867
		c-0.869,0.844-1.307,2.004-1.307,3.482c0,1.67,0.506,2.929,1.516,3.772c1.01,0.845,2.549,1.268,4.619,1.268
		c1.721,0,3.297-0.337,4.725-1.007C324.928,153.529,326.25,152.724,327.469,151.784z"/>
</g>
</svg>
