<?xml version="1.0" encoding="utf-8"?>
<!-- Generator: Adobe Illustrator 16.0.0, SVG Export Plug-In . SVG Version: 6.00 Build 0)  -->
<!DOCTYPE svg PUBLIC "-//W3C//DTD SVG 1.0//EN" "http://www.w3.org/TR/2001/REC-SVG-20010904/DTD/svg10.dtd">
<svg version="1.0" id="Camada_1" xmlns="http://www.w3.org/2000/svg" xmlns:xlink="http://www.w3.org/1999/xlink" x="0px" y="0px"
	 width="389px" height="100px" viewBox="0 0 389 100" enable-background="new 0 0 389 100" xml:space="preserve">
<rect display="none" fill="#66BB6A" width="500" height="146"/>
<g>
	<g enable-background="new    ">
		<path fill="#FFFFFF" d="M98.241,98.468V27.193h10.877v10.806c2.775-5.056,5.337-8.39,7.688-10c2.35-1.611,4.935-2.417,7.754-2.417
			c4.074,0,8.214,1.298,12.422,3.893l-4.164,11.208c-2.954-1.745-5.908-2.617-8.862-2.617c-2.641,0-5.013,0.794-7.117,2.382
			c-2.104,1.589-3.604,3.792-4.499,6.611c-1.343,4.295-2.014,8.993-2.014,14.094v37.315H98.241z"/>
		<path fill="#FFFFFF" d="M190.896,98.468v-10.47c-5.551,8.054-13.092,12.081-22.626,12.081c-4.208,0-8.135-0.805-11.783-2.416
			s-6.356-3.635-8.125-6.074c-1.768-2.439-3.01-5.425-3.726-8.96c-0.493-2.372-0.738-6.13-0.738-11.275V27.193h12.085v39.53
			c0,6.309,0.246,10.56,0.738,12.752c0.761,3.176,2.372,5.671,4.834,7.483c2.462,1.812,5.506,2.718,9.131,2.718
			s7.027-0.928,10.206-2.785c3.178-1.857,5.427-4.385,6.748-7.584c1.32-3.199,1.981-7.841,1.981-13.926V27.193h12.084v71.275
			H190.896z"/>
		<path fill="#FFFFFF" d="M220.706,13.972V0.079h12.085v13.893H220.706z M220.706,98.468V27.193h12.085v71.275H220.706z"/>
		<path fill="#FFFFFF" d="M297.448,98.468v-8.994c-4.521,7.069-11.167,10.604-19.941,10.604c-5.685,0-10.91-1.568-15.677-4.698
			c-4.768-3.132-8.46-7.505-11.079-13.121c-2.619-5.615-3.928-12.069-3.928-19.363c0-7.114,1.186-13.568,3.559-19.362
			c2.373-5.794,5.931-10.235,10.676-13.322c4.744-3.087,10.049-4.631,15.913-4.631c4.297,0,8.123,0.906,11.48,2.719
			c3.357,1.812,6.087,4.172,8.191,7.081V0.079h12.019v98.389H297.448z M259.244,62.897c0,9.128,1.926,15.951,5.774,20.47
			c3.85,4.519,8.393,6.778,13.629,6.778c5.283,0,9.77-2.159,13.462-6.477c3.692-4.317,5.538-10.906,5.538-19.765
			c0-9.753-1.879-16.913-5.64-21.476c-3.759-4.564-8.392-6.846-13.897-6.846c-5.372,0-9.859,2.192-13.461,6.577
			C261.047,46.544,259.244,53.457,259.244,62.897z"/>
		<path fill="#FFFFFF" d="M374.19,89.676c-4.476,3.803-8.784,6.488-12.925,8.054c-4.141,1.566-8.583,2.349-13.327,2.349
			c-7.833,0-13.854-1.913-18.062-5.738c-4.207-3.826-6.312-8.714-6.312-14.665c0-3.49,0.795-6.678,2.384-9.564
			c1.59-2.886,3.672-5.201,6.244-6.946c2.574-1.746,5.473-3.065,8.694-3.96c2.372-0.626,5.954-1.23,10.744-1.812
			c9.757-1.163,16.94-2.55,21.551-4.161c0.045-1.656,0.067-2.707,0.067-3.154c0-4.922-1.141-8.39-3.424-10.403
			c-3.089-2.729-7.676-4.094-13.764-4.094c-5.685,0-9.881,0.996-12.59,2.986c-2.707,1.991-4.711,5.514-6.008,10.57l-11.817-1.611
			c1.073-5.056,2.842-9.138,5.304-12.248s6.021-5.503,10.675-7.181c4.656-1.678,10.05-2.517,16.182-2.517
			c6.088,0,11.034,0.716,14.839,2.147c3.805,1.432,6.602,3.233,8.393,5.403c1.789,2.17,3.043,4.91,3.759,8.221
			c0.403,2.059,0.604,5.772,0.604,11.141v16.107c0,11.23,0.259,18.333,0.772,21.309c0.515,2.976,1.533,5.828,3.055,8.557h-12.622
			C375.354,95.962,374.549,93.032,374.19,89.676z M373.183,62.696c-4.386,1.79-10.966,3.311-19.739,4.564
			c-4.969,0.716-8.481,1.521-10.541,2.417c-2.06,0.895-3.648,2.203-4.767,3.926s-1.68,3.635-1.68,5.738
			c0,3.222,1.221,5.906,3.661,8.054c2.439,2.147,6.008,3.222,10.708,3.222c4.655,0,8.796-1.018,12.421-3.054
			c3.626-2.036,6.289-4.821,7.99-8.356c1.298-2.729,1.946-6.756,1.946-12.081V62.696z"/>
	</g>
	<g>
		<path id="path1977_10_" fill="#FFFFFF" d="M0.229,50.948V1.816l17.042,0.076
			c18.385,0.083,19.242,0.122,25.002,1.101c11.234,1.91,19.362,5.902,26.19,12.863c7.688,7.839,11.933,17.632,12.891,29.743
			c0.264,3.335,0.115,10.531-0.272,13.085c-0.917,6.063-2.393,10.794-4.952,15.882c-3.732,7.418-9.053,13.458-15.437,17.519
			c-4.729,3.009-11.104,5.449-17.062,6.527c-6.083,1.102-9.518,1.273-27.483,1.377l-15.92,0.09V50.948z M17.833,60.269
			c-3.706,3.083-12.92,15.55-3.9,30.423c0.796,1.313,23.276,6.682,38.729-2.839c3.479-2.142,7.815-6.815,10.085-10.425
			c18.586-30.464-7.177-63.035-7.196-62.992C43.555,43.146,22.328,56.529,17.833,60.269z"/>
		
			<path id="path4132_10_" fill="#FFFFFF" d="
			M14.832,90.189c-1.018-0.205-1.328-6.713,6.067-13.799c4.063-3.895,8.733-7.075,14.665-10.585c1.38-0.814,2.721-1.767,4.019-2.851
			c3.409-2.843,6.181-6.305,8.347-9.694l0,0c6.731-10.655,6.427-20.812,7.893-20.955c0.732-0.071,5.308,10.042-2.283,24.315l0,0
			c-2.183,4.155-5.316,8.378-9.528,11.872c-1.599,1.322-3.281,2.483-5.031,3.474c-6.297,3.533-10.231,5.537-14.551,8.738
			C17.92,85.528,15.927,90.411,14.832,90.189L14.832,90.189z"/>
		<path fill="#FFFFFF" d="M12.737,86.787"/>
	</g>
</g>
<g>
</g>
<g>
</g>
<g>
</g>
<g>
</g>
<g>
</g>
<g>
</g>
<g>
</g>
<g>
</g>
<g>
</g>
<g>
</g>
<g>
</g>
<g>
</g>
<g>
</g>
<g>
</g>
<g>
</g>
</svg>
