<?xml version="1.0" encoding="utf-8"?>
<!-- Generator: Adobe Illustrator 16.0.0, SVG Export Plug-In . SVG Version: 6.00 Build 0)  -->
<!DOCTYPE svg PUBLIC "-//W3C//DTD SVG 1.1//EN" "http://www.w3.org/Graphics/SVG/1.1/DTD/svg11.dtd">
<svg version="1.1" id="Camada_1" xmlns="http://www.w3.org/2000/svg" xmlns:xlink="http://www.w3.org/1999/xlink" x="0px" y="0px"
	 width="560px" height="100px" viewBox="0 0 560 100" enable-background="new 0 0 560 100" xml:space="preserve">
<g>
	<g enable-background="new    ">
		<path fill="#FFFFFF" d="M98.013,98.389V27.113h10.877V37.92c2.774-5.057,5.337-8.391,7.688-10c2.35-1.611,4.935-2.417,7.754-2.417
			c4.073,0,8.213,1.298,12.422,3.894l-4.164,11.207c-2.954-1.744-5.908-2.617-8.862-2.617c-2.642,0-5.013,0.795-7.117,2.383
			c-2.104,1.589-3.604,3.792-4.499,6.611c-1.343,4.293-2.014,8.992-2.014,14.092v37.315L98.013,98.389L98.013,98.389z"/>
		<path fill="#FFFFFF" d="M190.668,98.389v-10.47C185.117,95.973,177.577,100,168.042,100c-4.207,0-8.135-0.806-11.783-2.416
			c-3.647-1.611-6.355-3.636-8.125-6.074c-1.768-2.438-3.01-5.425-3.726-8.96c-0.493-2.372-0.737-6.13-0.737-11.274V27.113h12.084
			v39.531c0,6.31,0.246,10.561,0.738,12.75c0.762,3.176,2.372,5.672,4.834,7.483c2.463,1.813,5.506,2.718,9.131,2.718
			s7.027-0.928,10.207-2.784c3.178-1.855,5.426-4.386,6.748-7.585c1.319-3.199,1.98-7.841,1.98-13.926V27.113h12.084v71.275H190.668
			z"/>
		<path fill="#FFFFFF" d="M220.478,13.893V0h12.085v13.893H220.478z M220.478,98.389V27.113h12.085v71.275H220.478z"/>
		<path fill="#FFFFFF" d="M297.22,98.389v-8.993C292.699,96.464,286.053,100,277.279,100c-5.685,0-10.909-1.568-15.677-4.698
			c-4.768-3.132-8.46-7.505-11.079-13.121c-2.619-5.612-3.928-12.069-3.928-19.362c0-7.113,1.186-13.567,3.559-19.361
			s5.931-10.235,10.677-13.322c4.743-3.087,10.049-4.631,15.912-4.631c4.297,0,8.123,0.906,11.48,2.719
			c3.357,1.813,6.087,4.172,8.191,7.081V0h12.019v98.389H297.22z M259.016,62.816c0,9.129,1.926,15.953,5.773,20.472
			c3.851,4.519,8.394,6.777,13.629,6.777c5.281,0,9.771-2.158,13.463-6.479c3.689-4.315,5.537-10.906,5.537-19.767
			c0-9.752-1.879-16.911-5.642-21.476c-3.759-4.563-8.392-6.846-13.896-6.846c-5.371,0-9.858,2.192-13.461,6.577
			C260.819,46.465,259.016,53.378,259.016,62.816z"/>
		<path fill="#FFFFFF" d="M373.961,89.597c-4.478,3.803-8.783,6.488-12.924,8.055c-4.144,1.565-8.584,2.351-13.328,2.351
			c-7.832,0-13.854-1.913-18.063-5.738c-4.207-3.823-6.313-8.714-6.313-14.665c0-3.489,0.795-6.678,2.386-9.563
			c1.59-2.885,3.672-5.2,6.241-6.945c2.574-1.746,5.476-3.064,8.694-3.96c2.372-0.626,5.954-1.229,10.744-1.812
			c9.757-1.164,16.94-2.551,21.552-4.162c0.045-1.655,0.066-2.707,0.066-3.153c0-4.922-1.141-8.39-3.424-10.403
			c-3.09-2.729-7.676-4.094-13.764-4.094c-5.688,0-9.884,0.996-12.593,2.986c-2.707,1.99-4.711,5.514-6.008,10.57l-11.815-1.611
			c1.071-5.057,2.842-9.139,5.305-12.248c2.462-3.11,6.021-5.504,10.675-7.182c4.655-1.678,10.05-2.517,16.182-2.517
			c6.089,0,11.034,0.716,14.839,2.147c3.808,1.432,6.604,3.232,8.396,5.402c1.789,2.17,3.043,4.91,3.759,8.221
			c0.403,2.06,0.604,5.772,0.604,11.142v16.104c0,11.229,0.261,18.333,0.771,21.31c0.516,2.976,1.533,5.826,3.057,8.557h-12.623
			C375.125,95.883,374.321,92.953,373.961,89.597z M372.956,62.615c-4.387,1.791-10.967,3.313-19.74,4.564
			c-4.969,0.717-8.479,1.521-10.541,2.417c-2.06,0.896-3.646,2.203-4.767,3.927c-1.118,1.724-1.68,3.636-1.68,5.737
			c0,3.224,1.221,5.906,3.661,8.055c2.439,2.146,6.008,3.224,10.708,3.224c4.655,0,8.796-1.019,12.421-3.056
			c3.626-2.035,6.289-4.819,7.99-8.354c1.298-2.729,1.945-6.756,1.945-12.081v-4.431h0.002V62.615z"/>
	</g>
	<g>
		<path id="path1977_20_" fill="#FFFFFF" d="M0,50.869V1.736l17.043,0.076c18.385,0.084,19.242,0.123,25.002,1.102
			c11.233,1.91,19.361,5.902,26.189,12.863c7.688,7.838,11.934,17.631,12.891,29.742c0.265,3.336,0.115,10.531-0.271,13.084
			c-0.917,6.063-2.393,10.795-4.952,15.883c-3.731,7.418-9.053,13.458-15.437,17.52c-4.729,3.009-11.104,5.449-17.063,6.526
			c-6.083,1.103-9.518,1.271-27.482,1.378L0,100V50.869L0,50.869z M17.605,60.191c-3.706,3.082-12.92,15.547-3.899,30.421
			c0.795,1.313,23.275,6.684,38.729-2.838c3.479-2.144,7.814-6.814,10.085-10.427c18.586-30.464-7.177-63.035-7.196-62.992
			C43.327,43.066,22.1,56.449,17.605,60.191z"/>
		<path id="path4132_20_" fill="#FFFFFF" d="M14.604,90.11c-1.018-0.205-1.328-6.714,6.066-13.8
			c4.063-3.896,8.733-7.076,14.666-10.586c1.379-0.813,2.721-1.767,4.019-2.851c3.409-2.843,6.181-6.306,8.347-9.694l0,0
			c6.731-10.654,6.428-20.812,7.894-20.955c0.731-0.07,5.308,10.043-2.283,24.315l0,0c-2.183,4.155-5.315,8.378-9.528,11.872
			c-1.599,1.322-3.281,2.482-5.031,3.474c-6.297,3.533-10.23,5.537-14.551,8.738C17.692,85.448,15.699,90.332,14.604,90.11
			L14.604,90.11z"/>
		<path fill="#FFFFFF" d="M12.508,86.708"/>
	</g>
</g>
<g>
	<path fill="#FFFFFF" d="M403.438,41.754h40.078v7.578h-40.078V41.754z M419.492,46.402h7.969v52.148h-7.969V46.402z"/>
	<path fill="#FFFFFF" d="M455.664,99.137c0,0-1.328-0.703-3.984-2.109s-4.682-3.47-6.074-6.191c-1.394-2.721-2.09-6.009-2.09-9.863
		v-4.57c0-4.01,0.67-7.435,2.012-10.273c1.341-2.838,3.287-5,5.84-6.484c2.552-1.484,5.625-2.227,9.219-2.227
		c3.385,0,6.275,0.847,8.672,2.539c2.396,1.693,4.225,4.141,5.488,7.344c1.263,3.203,1.895,7.045,1.895,11.523v2.656h-27.344v-6.406
		h19.766c-0.234-3.307-1.088-5.879-2.559-7.715c-1.472-1.836-3.444-2.754-5.918-2.754c-3.021,0-5.358,0.99-7.012,2.969
		c-1.654,1.979-2.48,4.779-2.48,8.398v5.156c0,3.359,0.885,5.938,2.656,7.734c1.771,1.797,4.283,2.695,7.539,2.695
		c1.614,0,3.216-0.325,4.805-0.977c1.588-0.65,3.008-1.563,4.258-2.734l5.234,5.234c-2.006,1.928-4.258,3.418-6.758,4.473
		s-5.014,1.582-7.539,1.582C457.539,99.137,455.664,99.137,455.664,99.137z"/>
	<path fill="#FFFFFF" d="M498.398,99.137c0,0-1.309-0.689-3.926-2.07c-2.617-1.38-4.616-3.385-5.996-6.016
		c-1.381-2.63-2.07-5.807-2.07-9.531v-6.68c0-3.672,0.689-6.81,2.07-9.414c1.38-2.604,3.379-4.59,5.996-5.957
		s5.774-2.051,9.473-2.051c2.109,0,4.095,0.254,5.957,0.762c1.861,0.508,3.535,1.244,5.02,2.207
		c1.484,0.964,2.721,2.136,3.711,3.516l-5.742,5.156c-1.146-1.302-2.487-2.305-4.023-3.008c-1.537-0.703-3.139-1.055-4.805-1.055
		c-3.073,0-5.456,0.859-7.148,2.578c-1.693,1.719-2.539,4.141-2.539,7.266v6.68c0,3.203,0.84,5.678,2.52,7.422
		c1.68,1.745,4.068,2.617,7.168,2.617c1.692,0,3.307-0.377,4.844-1.133c1.536-0.755,2.864-1.822,3.984-3.203l5.742,5.547
		c-1.016,1.354-2.266,2.507-3.75,3.457c-1.484,0.951-3.158,1.674-5.02,2.168c-1.862,0.494-3.835,0.742-5.918,0.742
		C500.247,99.137,498.398,99.137,498.398,99.137z"/>
	<path fill="#FFFFFF" d="M527.422,41.754h7.969v56.797h-7.969V41.754z M552.031,73.98c0-2.864-0.742-5.078-2.227-6.641
		s-3.568-2.344-6.25-2.344c-2.604,0-4.616,0.678-6.035,2.031c-1.42,1.354-2.129,3.269-2.129,5.742l-0.82-7.813
		c1.25-2.396,2.884-4.251,4.902-5.566c2.018-1.314,4.251-1.973,6.699-1.973c4.4,0,7.806,1.439,10.215,4.316
		c2.408,2.878,3.613,6.947,3.613,12.207v24.609h-7.969V73.98z"/>
</g>
</svg>
