<?xml version="1.0" encoding="utf-8"?>
<!-- Generator: Adobe Illustrator 16.0.0, SVG Export Plug-In . SVG Version: 6.00 Build 0)  -->
<!DOCTYPE svg PUBLIC "-//W3C//DTD SVG 1.1//EN" "http://www.w3.org/Graphics/SVG/1.1/DTD/svg11.dtd">
<svg version="1.1" id="Camada_1" xmlns="http://www.w3.org/2000/svg" xmlns:xlink="http://www.w3.org/1999/xlink" x="0px" y="0px"
	 width="389px" height="150px" viewBox="0 0 389 150" enable-background="new 0 0 389 150" xml:space="preserve">
<rect x="-227" y="-145.5" display="none" stroke="#FFFFFF" stroke-miterlimit="10" width="918" height="447"/>
<rect display="none" fill="#66BB6A" width="389" height="169.5"/>
<g>
	<g enable-background="new    ">
		<path fill="#FFFFFF" d="M98.241,98.468V27.193h10.877v10.806c2.775-5.056,5.337-8.39,7.688-10c2.35-1.611,4.935-2.417,7.754-2.417
			c4.074,0,8.214,1.298,12.422,3.893l-4.164,11.208c-2.954-1.745-5.908-2.617-8.862-2.617c-2.641,0-5.013,0.794-7.117,2.382
			c-2.104,1.589-3.604,3.792-4.499,6.611c-1.343,4.294-2.014,8.993-2.014,14.093v37.315H98.241z"/>
		<path fill="#FFFFFF" d="M190.896,98.468v-10.47c-5.551,8.054-13.092,12.081-22.626,12.081c-4.208,0-8.135-0.806-11.783-2.416
			c-3.648-1.611-6.356-3.636-8.125-6.074c-1.768-2.438-3.01-5.425-3.726-8.96c-0.493-2.372-0.738-6.13-0.738-11.275V27.193h12.085
			v39.53c0,6.31,0.246,10.561,0.738,12.752c0.761,3.176,2.372,5.672,4.834,7.483c2.462,1.812,5.506,2.718,9.131,2.718
			s7.027-0.928,10.206-2.785c3.178-1.856,5.427-4.385,6.748-7.584c1.32-3.199,1.981-7.841,1.981-13.926V27.193h12.084v71.275
			H190.896z"/>
		<path fill="#FFFFFF" d="M220.706,13.972V0.079h12.085v13.893H220.706z M220.706,98.468V27.193h12.085v71.275H220.706z"/>
		<path fill="#FFFFFF" d="M297.448,98.468v-8.993c-4.521,7.068-11.167,10.604-19.941,10.604c-5.685,0-10.909-1.568-15.677-4.698
			c-4.768-3.132-8.46-7.505-11.079-13.121c-2.619-5.614-3.928-12.069-3.928-19.362c0-7.114,1.186-13.568,3.559-19.362
			s5.931-10.235,10.677-13.322c4.743-3.087,10.049-4.631,15.912-4.631c4.297,0,8.123,0.906,11.48,2.719
			c3.357,1.812,6.087,4.172,8.191,7.081V0.079h12.019v98.389H297.448z M259.244,62.896c0,9.129,1.926,15.951,5.773,20.471
			c3.851,4.519,8.394,6.777,13.629,6.777c5.283,0,9.771-2.158,13.463-6.477c3.691-4.316,5.537-10.906,5.537-19.766
			c0-9.752-1.879-16.912-5.64-21.476c-3.759-4.564-8.392-6.846-13.897-6.846c-5.371,0-9.858,2.192-13.461,6.577
			C261.047,46.544,259.244,53.457,259.244,62.896z"/>
		<path fill="#FFFFFF" d="M374.189,89.676c-4.476,3.803-8.783,6.488-12.924,8.055c-4.142,1.565-8.584,2.349-13.328,2.349
			c-7.832,0-13.854-1.913-18.062-5.738c-4.207-3.825-6.312-8.714-6.312-14.665c0-3.49,0.795-6.678,2.384-9.564
			c1.59-2.885,3.672-5.2,6.243-6.945c2.574-1.746,5.474-3.064,8.694-3.96c2.372-0.626,5.954-1.229,10.744-1.812
			c9.757-1.164,16.94-2.551,21.552-4.162c0.045-1.655,0.066-2.707,0.066-3.153c0-4.922-1.141-8.39-3.424-10.403
			c-3.09-2.729-7.676-4.094-13.764-4.094c-5.686,0-9.882,0.996-12.591,2.986c-2.707,1.991-4.711,5.514-6.008,10.57l-11.817-1.611
			c1.073-5.056,2.842-9.138,5.305-12.248c2.462-3.11,6.021-5.503,10.675-7.181c4.655-1.678,10.05-2.517,16.182-2.517
			c6.089,0,11.034,0.716,14.839,2.147c3.806,1.432,6.603,3.233,8.394,5.403c1.789,2.17,3.043,4.91,3.759,8.221
			c0.403,2.059,0.604,5.772,0.604,11.141V68.6c0,11.23,0.26,18.334,0.772,21.31c0.515,2.976,1.533,5.827,3.056,8.557h-12.623
			C375.354,95.962,374.549,93.032,374.189,89.676z M373.184,62.695c-4.387,1.791-10.967,3.312-19.74,4.564
			c-4.969,0.717-8.48,1.521-10.541,2.417c-2.06,0.896-3.647,2.203-4.767,3.927c-1.118,1.723-1.68,3.635-1.68,5.737
			c0,3.222,1.221,5.906,3.661,8.054c2.439,2.147,6.008,3.223,10.708,3.223c4.655,0,8.796-1.018,12.421-3.055
			c3.626-2.035,6.289-4.82,7.99-8.355c1.298-2.729,1.945-6.756,1.945-12.081v-4.431H373.184z"/>
	</g>
	<g>
		<path id="path1977_10_" fill="#FFFFFF" d="M0.229,50.948V1.816l17.042,0.076c18.385,0.083,19.242,0.122,25.002,1.101
			c11.234,1.91,19.362,5.902,26.19,12.863c7.688,7.839,11.933,17.632,12.891,29.743c0.264,3.335,0.115,10.531-0.272,13.084
			c-0.917,6.063-2.393,10.795-4.952,15.883c-3.732,7.418-9.053,13.457-15.437,17.519c-4.729,3.009-11.104,5.449-17.062,6.526
			c-6.083,1.103-9.518,1.273-27.483,1.378l-15.92,0.09L0.229,50.948L0.229,50.948z M17.833,60.27
			c-3.706,3.082-12.92,15.549-3.9,30.422c0.796,1.313,23.276,6.683,38.729-2.838c3.479-2.143,7.815-6.815,10.085-10.426
			c18.586-30.464-7.177-63.035-7.196-62.992C43.555,43.146,22.328,56.529,17.833,60.27z"/>
		<path id="path4132_10_" fill="#FFFFFF" d="M14.832,90.189c-1.018-0.205-1.328-6.713,6.067-13.799
			c4.063-3.896,8.733-7.076,14.665-10.586c1.38-0.813,2.721-1.767,4.019-2.851c3.409-2.843,6.181-6.306,8.347-9.694l0,0
			c6.731-10.655,6.427-20.812,7.893-20.955c0.732-0.071,5.308,10.042-2.283,24.315l0,0c-2.183,4.155-5.316,8.378-9.528,11.872
			c-1.599,1.322-3.281,2.482-5.031,3.474c-6.297,3.533-10.231,5.537-14.551,8.738C17.92,85.527,15.927,90.411,14.832,90.189
			L14.832,90.189z"/>
		<path fill="#FFFFFF" d="M12.737,86.787"/>
	</g>
</g>
<g>
	<path fill="#FFFFFF" d="M124.064,119.484h-9.352v23.08h-3.48v-23.08h-9.352v-3.094h22.184V119.484z"/>
	<path fill="#FFFFFF" d="M139.885,133.09h-14.467c0,1.207,0.182,2.259,0.545,3.155s0.861,1.632,1.494,2.206
		c0.609,0.563,1.333,0.984,2.171,1.266s1.761,0.422,2.769,0.422c1.336,0,2.681-0.267,4.034-0.8s2.317-1.058,2.892-1.573h0.176v3.604
		c-1.113,0.469-2.25,0.861-3.41,1.178s-2.379,0.475-3.656,0.475c-3.258,0-5.801-0.882-7.629-2.646s-2.742-4.269-2.742-7.515
		c0-3.211,0.876-5.76,2.628-7.646s4.058-2.83,6.917-2.83c2.648,0,4.69,0.773,6.126,2.32s2.153,3.744,2.153,6.592V133.09z
		 M136.668,130.559c-0.012-1.734-0.448-3.076-1.31-4.025s-2.171-1.424-3.929-1.424c-1.77,0-3.179,0.521-4.228,1.564
		s-1.644,2.338-1.784,3.885H136.668z"/>
	<path fill="#FFFFFF" d="M159.414,141.334c-1.102,0.527-2.147,0.938-3.138,1.23s-2.042,0.439-3.155,0.439
		c-1.418,0-2.719-0.208-3.902-0.624s-2.197-1.046-3.041-1.89c-0.855-0.844-1.518-1.91-1.986-3.199s-0.703-2.795-0.703-4.518
		c0-3.211,0.882-5.73,2.646-7.559s4.093-2.742,6.987-2.742c1.125,0,2.229,0.158,3.313,0.475s2.077,0.703,2.979,1.16v3.674h-0.176
		c-1.008-0.785-2.048-1.389-3.12-1.811s-2.118-0.633-3.138-0.633c-1.875,0-3.354,0.63-4.438,1.89s-1.626,3.108-1.626,5.546
		c0,2.367,0.53,4.187,1.591,5.458s2.552,1.907,4.474,1.907c0.668,0,1.348-0.088,2.039-0.264s1.313-0.404,1.863-0.686
		c0.48-0.246,0.932-0.507,1.354-0.782s0.756-0.513,1.002-0.712h0.176V141.334z"/>
	<path fill="#FFFFFF" d="M180.068,142.564h-3.305v-11.18c0-0.902-0.053-1.749-0.158-2.54s-0.299-1.409-0.58-1.854
		c-0.293-0.492-0.715-0.858-1.266-1.099s-1.266-0.36-2.145-0.36c-0.902,0-1.846,0.223-2.83,0.668s-1.928,1.014-2.83,1.705v14.66
		h-3.305V122.93h3.305v2.18c1.031-0.855,2.098-1.523,3.199-2.004s2.232-0.721,3.393-0.721c2.121,0,3.738,0.639,4.852,1.916
		s1.67,3.117,1.67,5.52V142.564z"/>
	<path fill="#FFFFFF" d="M203.166,132.756c0,3.199-0.82,5.725-2.461,7.576s-3.838,2.777-6.592,2.777
		c-2.777,0-4.983-0.926-6.618-2.777s-2.452-4.377-2.452-7.576s0.817-5.728,2.452-7.585s3.841-2.786,6.618-2.786
		c2.754,0,4.951,0.929,6.592,2.786S203.166,129.557,203.166,132.756z M199.756,132.756c0-2.543-0.498-4.433-1.494-5.669
		s-2.379-1.854-4.148-1.854c-1.793,0-3.185,0.618-4.175,1.854s-1.485,3.126-1.485,5.669c0,2.461,0.498,4.327,1.494,5.599
		s2.385,1.907,4.166,1.907c1.758,0,3.138-0.63,4.14-1.89S199.756,135.24,199.756,132.756z"/>
	<path fill="#FFFFFF" d="M211.621,142.564h-3.305v-27.352h3.305V142.564z"/>
	<path fill="#FFFFFF" d="M234.895,132.756c0,3.199-0.82,5.725-2.461,7.576s-3.838,2.777-6.592,2.777
		c-2.777,0-4.983-0.926-6.618-2.777s-2.452-4.377-2.452-7.576s0.817-5.728,2.452-7.585s3.841-2.786,6.618-2.786
		c2.754,0,4.951,0.929,6.592,2.786S234.895,129.557,234.895,132.756z M231.484,132.756c0-2.543-0.498-4.433-1.494-5.669
		s-2.379-1.854-4.148-1.854c-1.793,0-3.185,0.618-4.175,1.854s-1.485,3.126-1.485,5.669c0,2.461,0.498,4.327,1.494,5.599
		s2.385,1.907,4.166,1.907c1.758,0,3.138-0.63,4.14-1.89S231.484,135.24,231.484,132.756z"/>
	<path fill="#FFFFFF" d="M255.936,140.332c0,3.328-0.756,5.771-2.268,7.33S249.83,150,246.689,150c-1.043,0-2.06-0.073-3.05-0.22
		s-1.966-0.354-2.927-0.624v-3.375h0.176c0.539,0.211,1.395,0.472,2.566,0.782s2.344,0.466,3.516,0.466
		c1.125,0,2.057-0.135,2.795-0.404s1.313-0.645,1.723-1.125c0.41-0.457,0.703-1.008,0.879-1.652s0.264-1.365,0.264-2.162v-1.793
		c-0.996,0.797-1.948,1.392-2.856,1.784s-2.065,0.589-3.472,0.589c-2.344,0-4.204-0.847-5.581-2.54s-2.065-4.081-2.065-7.163
		c0-1.688,0.237-3.144,0.712-4.368s1.122-2.282,1.942-3.173c0.762-0.832,1.688-1.479,2.777-1.942s2.174-0.694,3.252-0.694
		c1.137,0,2.089,0.114,2.856,0.343s1.579,0.577,2.435,1.046l0.211-0.844h3.094V140.332z M252.631,137.168v-10.705
		c-0.879-0.398-1.696-0.683-2.452-0.853s-1.509-0.255-2.259-0.255c-1.816,0-3.246,0.609-4.289,1.828s-1.564,2.988-1.564,5.309
		c0,2.203,0.387,3.873,1.16,5.01s2.057,1.705,3.85,1.705c0.961,0,1.925-0.185,2.892-0.554S251.822,137.789,252.631,137.168z"/>
	<path fill="#FFFFFF" d="M265.99,119.643h-3.727v-3.428h3.727V119.643z M265.779,142.564h-3.305V122.93h3.305V142.564z"/>
	<path fill="#FFFFFF" d="M287.576,142.564h-3.287v-2.092c-0.293,0.199-0.688,0.478-1.187,0.835s-0.981,0.642-1.45,0.853
		c-0.551,0.27-1.184,0.495-1.898,0.677s-1.553,0.272-2.514,0.272c-1.77,0-3.27-0.586-4.5-1.758s-1.846-2.666-1.846-4.482
		c0-1.488,0.319-2.692,0.958-3.612s1.55-1.644,2.733-2.171c1.195-0.527,2.631-0.885,4.307-1.072s3.475-0.328,5.396-0.422v-0.51
		c0-0.75-0.132-1.371-0.396-1.863s-0.642-0.879-1.134-1.16c-0.469-0.27-1.031-0.451-1.688-0.545s-1.342-0.141-2.057-0.141
		c-0.867,0-1.834,0.114-2.9,0.343s-2.168,0.56-3.305,0.993h-0.176v-3.357c0.645-0.176,1.576-0.369,2.795-0.58
		s2.42-0.316,3.604-0.316c1.383,0,2.587,0.114,3.612,0.343s1.913,0.618,2.663,1.169c0.738,0.539,1.301,1.236,1.688,2.092
		s0.58,1.916,0.58,3.182V142.564z M284.289,137.73v-5.467c-1.008,0.059-2.194,0.146-3.56,0.264s-2.446,0.287-3.243,0.51
		c-0.949,0.27-1.717,0.688-2.303,1.257s-0.879,1.351-0.879,2.347c0,1.125,0.34,1.972,1.02,2.54s1.717,0.853,3.111,0.853
		c1.16,0,2.221-0.226,3.182-0.677S283.469,138.363,284.289,137.73z"/>
</g>
</svg>
